G75*
%MOIN*%
%OFA0B0*%
%FSLAX25Y25*%
%IPPOS*%
%LPD*%
%AMOC8*
5,1,8,0,0,1.08239X$1,22.5*
%
%ADD10C,0.10800*%
%ADD11C,0.12808*%
%ADD12C,0.07918*%
%ADD13R,0.04737X0.05131*%
%ADD14R,0.05131X0.04737*%
%ADD15C,0.19532*%
%ADD16C,0.12611*%
%ADD17C,0.09887*%
%ADD18C,0.05950*%
%ADD19C,0.07328*%
%ADD20R,0.04737X0.06312*%
%ADD21OC8,0.06800*%
%ADD22C,0.04762*%
%ADD23C,0.04400*%
%ADD24C,0.05156*%
%ADD25C,0.06706*%
D10*
X0320000Y0053484D03*
X0320000Y0083484D03*
X0320000Y0113484D03*
X0560000Y0113484D03*
X0560000Y0083484D03*
X0560000Y0053484D03*
X0555000Y0283484D03*
X0555000Y0313484D03*
X0555000Y0343484D03*
X0310000Y0343484D03*
X0310000Y0313484D03*
X0310000Y0283484D03*
D11*
X0355000Y0283484D03*
X0355000Y0343484D03*
X0110000Y0343484D03*
X0110000Y0283484D03*
X0120000Y0113484D03*
X0120000Y0053484D03*
X0360000Y0053484D03*
X0360000Y0113484D03*
D12*
X0356063Y0099232D03*
X0363937Y0099232D03*
X0363937Y0091358D03*
X0356063Y0091358D03*
X0356063Y0083484D03*
X0363937Y0083484D03*
X0363937Y0075610D03*
X0356063Y0075610D03*
X0356063Y0067736D03*
X0363937Y0067736D03*
X0123937Y0067736D03*
X0116063Y0067736D03*
X0116063Y0075610D03*
X0123937Y0075610D03*
X0123937Y0083484D03*
X0116063Y0083484D03*
X0116063Y0091358D03*
X0123937Y0091358D03*
X0123937Y0099232D03*
X0116063Y0099232D03*
X0113937Y0297736D03*
X0106063Y0297736D03*
X0106063Y0305610D03*
X0113937Y0305610D03*
X0113937Y0313484D03*
X0106063Y0313484D03*
X0106063Y0321358D03*
X0113937Y0321358D03*
X0113937Y0329232D03*
X0106063Y0329232D03*
X0351063Y0329232D03*
X0358937Y0329232D03*
X0358937Y0321358D03*
X0351063Y0321358D03*
X0351063Y0313484D03*
X0358937Y0313484D03*
X0358937Y0305610D03*
X0351063Y0305610D03*
X0351063Y0297736D03*
X0358937Y0297736D03*
D13*
X0034946Y0106584D03*
X0028254Y0106584D03*
X0028754Y0099584D03*
X0035446Y0099584D03*
X0035800Y0080531D03*
X0040700Y0080431D03*
X0040700Y0073738D03*
X0035800Y0073838D03*
X0062100Y0073538D03*
X0062100Y0080231D03*
X0064900Y0024331D03*
X0070000Y0024231D03*
X0070000Y0017538D03*
X0064900Y0017638D03*
X0041246Y0018284D03*
X0034554Y0018284D03*
D14*
X0026546Y0033384D03*
X0026446Y0038084D03*
X0019754Y0038084D03*
X0019854Y0033384D03*
X0076154Y0054084D03*
X0076154Y0058884D03*
X0082846Y0058884D03*
X0082846Y0054084D03*
X0078700Y0072638D03*
X0078700Y0079331D03*
X0098200Y0078938D03*
X0098200Y0085631D03*
D15*
X0245000Y0194311D03*
X0285000Y0194311D03*
X0325000Y0194311D03*
X0365827Y0183484D03*
X0394173Y0183484D03*
X0440827Y0183484D03*
X0469173Y0183484D03*
X0515827Y0183484D03*
X0544173Y0183484D03*
X0544173Y0223484D03*
X0515827Y0223484D03*
X0469173Y0223484D03*
X0440827Y0223484D03*
X0394173Y0223484D03*
X0365827Y0223484D03*
X0325000Y0222658D03*
X0285000Y0222658D03*
X0245000Y0222658D03*
D16*
X0583976Y0324744D03*
X0692008Y0324744D03*
D17*
X0671654Y0326043D03*
X0649213Y0326043D03*
X0626772Y0326043D03*
X0604331Y0326043D03*
X0604331Y0348484D03*
X0626772Y0348484D03*
X0649213Y0348484D03*
X0671654Y0348484D03*
D18*
X0021339Y0148327D03*
X0021339Y0128642D03*
D19*
X0010709Y0124321D03*
X0010709Y0152648D03*
D20*
X0084760Y0078515D03*
X0092240Y0078515D03*
X0088500Y0069854D03*
D21*
X0094646Y0064232D03*
X0087854Y0088150D03*
X0071850Y0118445D03*
X0022244Y0070551D03*
X0020177Y0048937D03*
X0251791Y0088858D03*
X0254980Y0061162D03*
X0119744Y0199055D03*
D22*
X0013100Y0011384D03*
X0015900Y0025384D03*
X0049000Y0035384D03*
X0055200Y0034284D03*
X0018100Y0057284D03*
X0017800Y0063584D03*
X0050900Y0065484D03*
X0099300Y0041384D03*
X0115300Y0038084D03*
X0117600Y0022084D03*
X0172800Y0068284D03*
X0202900Y0046984D03*
X0258800Y0044284D03*
X0281300Y0028584D03*
X0261488Y0024382D03*
X0324800Y0013984D03*
X0339100Y0017748D03*
X0339100Y0008784D03*
X0357100Y0016684D03*
X0333100Y0028584D03*
X0347500Y0035684D03*
X0391600Y0016684D03*
X0416200Y0028584D03*
X0435000Y0023484D03*
X0437900Y0032784D03*
X0457400Y0032884D03*
X0460000Y0023484D03*
X0470900Y0013584D03*
X0490800Y0011584D03*
X0494400Y0018984D03*
X0538200Y0023784D03*
X0538100Y0033884D03*
X0570000Y0033484D03*
X0535300Y0053984D03*
X0500500Y0054884D03*
X0466000Y0055384D03*
X0432700Y0069284D03*
X0465700Y0081084D03*
X0501600Y0080784D03*
X0534100Y0079984D03*
X0592100Y0082084D03*
X0611200Y0114984D03*
X0650500Y0114284D03*
X0684900Y0102984D03*
X0674300Y0145084D03*
X0673300Y0191284D03*
X0671600Y0230684D03*
X0672600Y0265284D03*
X0669500Y0298484D03*
X0579600Y0310284D03*
X0576200Y0285784D03*
X0532400Y0294584D03*
X0516200Y0270684D03*
X0516350Y0258854D03*
X0492600Y0259384D03*
X0492500Y0267884D03*
X0431100Y0270584D03*
X0429500Y0277884D03*
X0431100Y0259184D03*
X0407520Y0257965D03*
X0372000Y0274884D03*
X0365700Y0278184D03*
X0360900Y0269784D03*
X0332400Y0258984D03*
X0330400Y0266884D03*
X0290200Y0255684D03*
X0278700Y0236884D03*
X0253500Y0254084D03*
X0237800Y0245984D03*
X0244200Y0275284D03*
X0288000Y0302084D03*
X0247400Y0306784D03*
X0230200Y0323784D03*
X0235800Y0344684D03*
X0274500Y0332284D03*
X0341000Y0343884D03*
X0400300Y0348084D03*
X0420100Y0334384D03*
X0440200Y0347084D03*
X0464800Y0328684D03*
X0480600Y0347084D03*
X0504800Y0361584D03*
X0520600Y0360784D03*
X0530100Y0360984D03*
X0517400Y0340984D03*
X0528200Y0324184D03*
X0413400Y0299584D03*
X0365200Y0297884D03*
X0194300Y0328584D03*
X0166000Y0313484D03*
X0144700Y0328184D03*
X0160900Y0328984D03*
X0098400Y0377884D03*
X0057900Y0386884D03*
X0023000Y0389084D03*
X0027800Y0359284D03*
X0033000Y0324884D03*
X0030800Y0298384D03*
X0045400Y0299884D03*
X0069000Y0300084D03*
X0016200Y0275184D03*
X0025500Y0244084D03*
X0084100Y0236684D03*
X0116600Y0233184D03*
X0146200Y0235584D03*
X0178913Y0234819D03*
X0188700Y0217084D03*
X0183800Y0194684D03*
X0166000Y0169384D03*
X0192300Y0154984D03*
X0137100Y0145884D03*
X0114800Y0135984D03*
X0123500Y0129784D03*
X0105800Y0122284D03*
X0104200Y0093984D03*
X0140400Y0096684D03*
X0254300Y0100884D03*
X0283704Y0078344D03*
X0347600Y0088484D03*
X0405600Y0115284D03*
X0444200Y0114384D03*
X0486000Y0116484D03*
X0590000Y0173484D03*
X0575400Y0242784D03*
X0689200Y0396584D03*
X0129000Y0180984D03*
X0021900Y0104084D03*
X0112500Y0260184D03*
X0665000Y0048484D03*
D23*
X0112100Y0206684D03*
X0051300Y0166284D03*
X0036600Y0162984D03*
X0036500Y0170584D03*
X0036000Y0177184D03*
X0036100Y0184384D03*
X0049800Y0136184D03*
X0049700Y0131384D03*
X0049600Y0126684D03*
X0049500Y0121984D03*
X0042600Y0107084D03*
X0043700Y0099584D03*
X0044000Y0085884D03*
X0047400Y0082484D03*
X0050800Y0079184D03*
X0068200Y0079984D03*
X0073500Y0075584D03*
X0062100Y0065184D03*
X0068300Y0058084D03*
X0082400Y0047784D03*
X0089100Y0054884D03*
X0066400Y0034884D03*
X0061300Y0034484D03*
X0038500Y0033584D03*
X0035000Y0038284D03*
X0032000Y0025084D03*
X0022000Y0027384D03*
X0060100Y0018984D03*
X0062700Y0007684D03*
X0041600Y0065784D03*
X0036100Y0065384D03*
X0080100Y0091884D03*
X0074700Y0111184D03*
X0099600Y0110284D03*
X0086000Y0135484D03*
D24*
X0058200Y0135484D03*
X0082000Y0172284D03*
X0056400Y0180184D03*
D25*
X0177000Y0110584D03*
X0187300Y0110584D03*
X0197500Y0110884D03*
M02*
