%
M48
M72
T01C0.02000
T02C0.02362
T03C0.02756
T04C0.03150
T05C0.03937
T06C0.04000
T07C0.04528
T08C0.05118
T09C0.05984
T10C0.07087
T11C0.08189
T12C0.11811
T13C0.16732
%
T01
X22000Y27384
X32000Y25084
X38500Y33584
X35000Y38284
X61300Y34484
X66400Y34884
X82400Y47784
X89100Y54884
X68300Y58084
X62100Y65184
X73500Y75584
X68200Y79984
X50800Y79184
X47400Y82484
X44000Y85884
X43700Y99584
X42600Y107084
X49500Y121984
X49600Y126684
X49700Y131384
X49800Y136184
X86000Y135484
X74700Y111184
X99600Y110284
X80100Y91884
X41600Y65784
X36100Y65384
X60100Y18984
X62700Y7684
X36600Y162984
X36500Y170584
X36000Y177184
X36100Y184384
X51300Y166284
X112100Y206684
T02
X13100Y11384
X15900Y25384
X49000Y35384
X55200Y34284
X18100Y57284
X17800Y63584
X50900Y65484
X99300Y41384
X115300Y38084
X117600Y22084
X172800Y68284
X202900Y46984
X258800Y44284
X281300Y28584
X261488Y24382
X324800Y13984
X339100Y17748
X339100Y8784
X357100Y16684
X333100Y28584
X347500Y35684
X391600Y16684
X416200Y28584
X435000Y23484
X437900Y32784
X457400Y32884
X460000Y23484
X470900Y13584
X490800Y11584
X494400Y18984
X538200Y23784
X538100Y33884
X570000Y33484
X535300Y53984
X500500Y54884
X466000Y55384
X432700Y69284
X465700Y81084
X501600Y80784
X534100Y79984
X592100Y82084
X611200Y114984
X650500Y114284
X684900Y102984
X674300Y145084
X673300Y191284
X671600Y230684
X672600Y265284
X669500Y298484
X579600Y310284
X576200Y285784
X532400Y294584
X516200Y270684
X516350Y258854
X492600Y259384
X492500Y267884
X431100Y270584
X429500Y277884
X431100Y259184
X407520Y257965
X372000Y274884
X365700Y278184
X360900Y269784
X332400Y258984
X330400Y266884
X290200Y255684
X278700Y236884
X253500Y254084
X237800Y245984
X244200Y275284
X288000Y302084
X247400Y306784
X230200Y323784
X235800Y344684
X274500Y332284
X341000Y343884
X400300Y348084
X420100Y334384
X440200Y347084
X464800Y328684
X480600Y347084
X504800Y361584
X520600Y360784
X530100Y360984
X517400Y340984
X528200Y324184
X413400Y299584
X365200Y297884
X194300Y328584
X166000Y313484
X144700Y328184
X160900Y328984
X98400Y377884
X57900Y386884
X23000Y389084
X27800Y359284
X33000Y324884
X30800Y298384
X45400Y299884
X69000Y300084
X16200Y275184
X25500Y244084
X84100Y236684
X116600Y233184
X146200Y235584
X178913Y234819
X188700Y217084
X183800Y194684
X166000Y169384
X192300Y154984
X137100Y145884
X114800Y135984
X123500Y129784
X105800Y122284
X104200Y93984
X140400Y96684
X254300Y100884
X283704Y78344
X347600Y88484
X405600Y115284
X444200Y114384
X486000Y116484
X590000Y173484
X575400Y242784
X689200Y396584
X129000Y180984
X21900Y104084
X112500Y260184
X665000Y48484
T03
X82000Y172284
X56400Y180184
X58200Y135484
T04
X21339Y128642
X21339Y148327
T05
X177000Y110584
X187300Y110584
X197500Y110884
T06
X251791Y88858
X254980Y61162
X94646Y64232
X87854Y88150
X71850Y118445
X22244Y70551
X20177Y48937
X119744Y199055
T07
X10709Y152648
X10709Y124321
T08
X116063Y99232
X123937Y99232
X123937Y91358
X116063Y91358
X116063Y83484
X123937Y83484
X123937Y75610
X116063Y75610
X116063Y67736
X123937Y67736
X356063Y67736
X363937Y67736
X363937Y75610
X356063Y75610
X356063Y83484
X363937Y83484
X363937Y91358
X356063Y91358
X356063Y99232
X363937Y99232
X358937Y297736
X351063Y297736
X351063Y305610
X358937Y305610
X358937Y313484
X351063Y313484
X351063Y321358
X358937Y321358
X358937Y329232
X351063Y329232
X113937Y329232
X113937Y321358
X113937Y313484
X113937Y305610
X113937Y297736
X106063Y297736
X106063Y305610
X106063Y313484
X106063Y321358
X106063Y329232
T09
X310000Y343484
X310000Y313484
X310000Y283484
X555000Y283484
X555000Y313484
X555000Y343484
X560000Y113484
X560000Y83484
X560000Y53484
X320000Y53484
X320000Y83484
X320000Y113484
T10
X604331Y326043
X626772Y326043
X649213Y326043
X671654Y326043
X671654Y348484
X649213Y348484
X626772Y348484
X604331Y348484
T11
X355000Y343484
X355000Y283484
X110000Y283484
X110000Y343484
X120000Y113484
X120000Y53484
X360000Y53484
X360000Y113484
T12
X583976Y324744
X692008Y324744
T13
X544173Y223484
X515827Y223484
X469173Y223484
X440827Y223484
X394173Y223484
X365827Y223484
X325000Y222658
X285000Y222658
X245000Y222658
X245000Y194311
X285000Y194311
X325000Y194311
X365827Y183484
X394173Y183484
X440827Y183484
X469173Y183484
X515827Y183484
X544173Y183484
M30
