G75*
%MOIN*%
%OFA0B0*%
%FSLAX25Y25*%
%IPPOS*%
%LPD*%
%AMOC8*
5,1,8,0,0,1.08239X$1,22.5*
%
%ADD10C,0.10800*%
%ADD11C,0.12808*%
%ADD12C,0.07718*%
%ADD13R,0.04737X0.05131*%
%ADD14R,0.05131X0.04737*%
%ADD15C,0.19332*%
%ADD16C,0.12611*%
%ADD17C,0.09687*%
%ADD18C,0.05750*%
%ADD19C,0.07128*%
%ADD20R,0.04737X0.06312*%
%ADD21C,0.05556*%
%ADD22C,0.06737*%
D10*
X0320000Y0053484D03*
X0320000Y0083484D03*
X0320000Y0113484D03*
X0560000Y0113484D03*
X0560000Y0083484D03*
X0560000Y0053484D03*
X0555000Y0283484D03*
X0555000Y0313484D03*
X0555000Y0343484D03*
X0310000Y0343484D03*
X0310000Y0313484D03*
X0310000Y0283484D03*
D11*
X0355000Y0283484D03*
X0355000Y0343484D03*
X0110000Y0343484D03*
X0110000Y0283484D03*
X0120000Y0113484D03*
X0120000Y0053484D03*
X0360000Y0053484D03*
X0360000Y0113484D03*
D12*
X0356063Y0099232D03*
X0363937Y0099232D03*
X0363937Y0091358D03*
X0356063Y0091358D03*
X0356063Y0083484D03*
X0363937Y0083484D03*
X0363937Y0075610D03*
X0356063Y0075610D03*
X0356063Y0067736D03*
X0363937Y0067736D03*
X0123937Y0067736D03*
X0116063Y0067736D03*
X0116063Y0075610D03*
X0123937Y0075610D03*
X0123937Y0083484D03*
X0116063Y0083484D03*
X0116063Y0091358D03*
X0123937Y0091358D03*
X0123937Y0099232D03*
X0116063Y0099232D03*
X0113937Y0297736D03*
X0106063Y0297736D03*
X0106063Y0305610D03*
X0113937Y0305610D03*
X0113937Y0313484D03*
X0106063Y0313484D03*
X0106063Y0321358D03*
X0113937Y0321358D03*
X0113937Y0329232D03*
X0106063Y0329232D03*
X0351063Y0329232D03*
X0358937Y0329232D03*
X0358937Y0321358D03*
X0351063Y0321358D03*
X0351063Y0313484D03*
X0358937Y0313484D03*
X0358937Y0305610D03*
X0351063Y0305610D03*
X0351063Y0297736D03*
X0358937Y0297736D03*
D13*
X0034554Y0018284D03*
X0041246Y0018284D03*
X0064900Y0017638D03*
X0070000Y0017538D03*
X0070000Y0024231D03*
X0064900Y0024331D03*
X0062100Y0073538D03*
X0062100Y0080231D03*
X0040700Y0080431D03*
X0035800Y0080531D03*
X0035800Y0073838D03*
X0040700Y0073738D03*
X0035446Y0099584D03*
X0028754Y0099584D03*
X0028254Y0106584D03*
X0034946Y0106584D03*
D14*
X0078700Y0079331D03*
X0078700Y0072638D03*
X0098200Y0078938D03*
X0098200Y0085631D03*
X0082846Y0058884D03*
X0082846Y0054084D03*
X0076154Y0054084D03*
X0076154Y0058884D03*
X0026446Y0038084D03*
X0026546Y0033384D03*
X0019854Y0033384D03*
X0019754Y0038084D03*
D15*
X0245000Y0194311D03*
X0285000Y0194311D03*
X0325000Y0194311D03*
X0365827Y0183484D03*
X0394173Y0183484D03*
X0440827Y0183484D03*
X0469173Y0183484D03*
X0515827Y0183484D03*
X0544173Y0183484D03*
X0544173Y0223484D03*
X0515827Y0223484D03*
X0469173Y0223484D03*
X0440827Y0223484D03*
X0394173Y0223484D03*
X0365827Y0223484D03*
X0325000Y0222658D03*
X0285000Y0222658D03*
X0245000Y0222658D03*
D16*
X0583976Y0324744D03*
X0692008Y0324744D03*
D17*
X0671654Y0326043D03*
X0649213Y0326043D03*
X0626772Y0326043D03*
X0604331Y0326043D03*
X0604331Y0348484D03*
X0626772Y0348484D03*
X0649213Y0348484D03*
X0671654Y0348484D03*
D18*
X0021339Y0148327D03*
X0021339Y0128642D03*
D19*
X0010709Y0124321D03*
X0010709Y0152648D03*
D20*
X0084760Y0078515D03*
X0092240Y0078515D03*
X0088500Y0069854D03*
D21*
X0058200Y0135484D03*
X0082000Y0172284D03*
X0056400Y0180184D03*
D22*
X0177000Y0110584D03*
X0187300Y0110584D03*
X0197500Y0110884D03*
M02*
