G75*
%MOIN*%
%OFA0B0*%
%FSLAX25Y25*%
%IPPOS*%
%LPD*%
%AMOC8*
5,1,8,0,0,1.08239X$1,22.5*
%
%ADD10C,0.10800*%
%ADD11C,0.12989*%
%ADD12C,0.08477*%
%ADD13C,0.23206*%
%ADD14C,0.12611*%
%ADD15C,0.11430*%
%ADD16R,0.04737X0.05131*%
%ADD17R,0.04737X0.06312*%
%ADD18R,0.05131X0.04737*%
%ADD19OC8,0.06800*%
%ADD20R,0.06706X0.05918*%
%ADD21R,0.05918X0.06706*%
%ADD22C,0.14643*%
%ADD23R,0.05524X0.05524*%
%ADD24OC8,0.07800*%
%ADD25C,0.06600*%
%ADD26C,0.06800*%
%ADD27C,0.05556*%
%ADD28C,0.06737*%
D10*
X0316800Y0058601D03*
X0316800Y0088601D03*
X0316800Y0118601D03*
X0556800Y0118601D03*
X0556800Y0088601D03*
X0556800Y0058601D03*
X0551800Y0288601D03*
X0551800Y0318601D03*
X0551800Y0348601D03*
X0306800Y0348601D03*
X0306800Y0318601D03*
X0306800Y0288601D03*
D11*
X0351800Y0288601D03*
X0351800Y0348601D03*
X0106800Y0348601D03*
X0106800Y0288601D03*
X0116800Y0118601D03*
X0116800Y0058601D03*
X0356800Y0058601D03*
X0356800Y0118601D03*
D12*
X0352863Y0104349D03*
X0360737Y0104349D03*
X0360737Y0096475D03*
X0352863Y0096475D03*
X0352863Y0088601D03*
X0360737Y0088601D03*
X0360737Y0080727D03*
X0352863Y0080727D03*
X0352863Y0072853D03*
X0360737Y0072853D03*
X0120737Y0072853D03*
X0112863Y0072853D03*
X0112863Y0080727D03*
X0120737Y0080727D03*
X0120737Y0088601D03*
X0112863Y0088601D03*
X0112863Y0096475D03*
X0120737Y0096475D03*
X0120737Y0104349D03*
X0112863Y0104349D03*
X0110737Y0302853D03*
X0102863Y0302853D03*
X0102863Y0310727D03*
X0110737Y0310727D03*
X0110737Y0318601D03*
X0102863Y0318601D03*
X0102863Y0326475D03*
X0110737Y0326475D03*
X0110737Y0334349D03*
X0102863Y0334349D03*
X0347863Y0334349D03*
X0355737Y0334349D03*
X0355737Y0326475D03*
X0347863Y0326475D03*
X0347863Y0318601D03*
X0355737Y0318601D03*
X0355737Y0310727D03*
X0347863Y0310727D03*
X0347863Y0302853D03*
X0355737Y0302853D03*
D13*
X0362627Y0228601D03*
X0390973Y0228601D03*
X0437627Y0228601D03*
X0465973Y0228601D03*
X0512627Y0228601D03*
X0540973Y0228601D03*
X0540973Y0188601D03*
X0512627Y0188601D03*
X0465973Y0188601D03*
X0437627Y0188601D03*
X0390973Y0188601D03*
X0362627Y0188601D03*
X0321800Y0199428D03*
X0281800Y0199428D03*
X0241800Y0199428D03*
X0241800Y0227774D03*
X0281800Y0227774D03*
X0321800Y0227774D03*
D14*
X0579989Y0322774D03*
X0688020Y0322774D03*
D15*
X0667666Y0324073D03*
X0645225Y0324073D03*
X0622784Y0324073D03*
X0600343Y0324073D03*
X0600343Y0346514D03*
X0622784Y0346514D03*
X0645225Y0346514D03*
X0667666Y0346514D03*
D16*
X0021406Y0017538D03*
X0021406Y0024231D03*
X0031354Y0023401D03*
X0038046Y0023401D03*
D17*
X0069158Y0062765D03*
X0065418Y0071427D03*
X0072898Y0071427D03*
D18*
X0053059Y0069487D03*
X0053059Y0062794D03*
X0095000Y0084054D03*
X0095000Y0090747D03*
D19*
X0065524Y0083050D03*
X0013476Y0077243D03*
X0013434Y0065077D03*
X0161032Y0221888D03*
D20*
X0622615Y0275884D03*
X0622615Y0283365D03*
X0639280Y0268876D03*
X0639280Y0261396D03*
D21*
X0670855Y0269034D03*
X0678335Y0269034D03*
X0603335Y0268798D03*
X0595855Y0268798D03*
X0595855Y0279034D03*
X0603335Y0279034D03*
X0671099Y0202089D03*
X0678580Y0202089D03*
X0678312Y0192424D03*
X0670831Y0192424D03*
X0670981Y0182050D03*
X0678461Y0182050D03*
X0678434Y0172097D03*
X0670954Y0172097D03*
X0671013Y0160022D03*
X0678493Y0160022D03*
X0678150Y0149876D03*
X0670670Y0149876D03*
X0670497Y0139951D03*
X0677977Y0139951D03*
X0677847Y0130156D03*
X0670367Y0130156D03*
D22*
X0681721Y0026987D03*
X0679989Y0391554D03*
X0020383Y0391554D03*
D23*
X0651839Y0268995D03*
X0660107Y0268995D03*
D24*
X0580383Y0268876D03*
X0580383Y0258876D03*
X0580383Y0248876D03*
X0580383Y0238876D03*
X0580383Y0278876D03*
X0580383Y0288876D03*
D25*
X0086170Y0172656D03*
X0076170Y0172656D03*
X0066170Y0172656D03*
X0056170Y0172656D03*
X0046170Y0172656D03*
X0036170Y0172656D03*
X0026170Y0172656D03*
X0026170Y0162656D03*
X0026170Y0152656D03*
X0026170Y0142656D03*
X0026170Y0132656D03*
X0026170Y0122656D03*
X0026170Y0112656D03*
X0026170Y0102656D03*
X0026170Y0092656D03*
X0026170Y0082656D03*
X0036170Y0082656D03*
X0036170Y0092656D03*
X0046170Y0102656D03*
X0056170Y0102656D03*
X0056170Y0112656D03*
X0046170Y0112656D03*
X0046170Y0122656D03*
X0056170Y0122656D03*
X0056170Y0132656D03*
X0046170Y0132656D03*
X0046170Y0142656D03*
X0056170Y0142656D03*
X0056170Y0152656D03*
X0046170Y0152656D03*
X0046170Y0162656D03*
X0056170Y0162656D03*
X0086170Y0162656D03*
X0086170Y0152656D03*
X0086170Y0142656D03*
X0086170Y0132656D03*
X0086170Y0122656D03*
X0086170Y0112656D03*
X0086170Y0102656D03*
X0086170Y0092656D03*
X0086170Y0082656D03*
X0086170Y0072656D03*
X0086170Y0062656D03*
X0086170Y0052656D03*
X0086170Y0042656D03*
X0036170Y0052656D03*
X0026170Y0052656D03*
X0026170Y0042656D03*
X0026170Y0062656D03*
X0026170Y0072656D03*
X0036170Y0072656D03*
D26*
X0690200Y0076101D02*
X0696200Y0076101D01*
X0696200Y0066101D02*
X0690200Y0066101D01*
X0690200Y0056101D02*
X0696200Y0056101D01*
X0696200Y0046101D02*
X0690200Y0046101D01*
X0690200Y0088101D02*
X0696200Y0088101D01*
X0696200Y0098101D02*
X0690200Y0098101D01*
X0690200Y0108101D02*
X0696200Y0108101D01*
X0696200Y0118101D02*
X0690200Y0118101D01*
X0690200Y0130101D02*
X0696200Y0130101D01*
X0696200Y0140101D02*
X0690200Y0140101D01*
X0690200Y0150101D02*
X0696200Y0150101D01*
X0696200Y0160101D02*
X0690200Y0160101D01*
X0690200Y0172101D02*
X0696200Y0172101D01*
X0696200Y0182101D02*
X0690200Y0182101D01*
X0690200Y0192101D02*
X0696200Y0192101D01*
X0696200Y0202101D02*
X0690200Y0202101D01*
D27*
X0053200Y0185301D03*
D28*
X0173800Y0115701D03*
X0184100Y0115701D03*
X0194300Y0116001D03*
X0193500Y0125301D03*
X0204300Y0124901D03*
X0204500Y0115901D03*
M02*
