G75*
%MOIN*%
%OFA0B0*%
%FSLAX25Y25*%
%IPPOS*%
%LPD*%
%AMOC8*
5,1,8,0,0,1.08239X$1,22.5*
%
%ADD10C,0.00500*%
%ADD11C,0.00400*%
%ADD12C,0.00100*%
%ADD13C,0.00600*%
D10*
X0103996Y0015097D02*
X0103996Y0162105D01*
X0336004Y0162105D01*
X0336004Y0015097D01*
X0103996Y0015097D01*
X0324629Y0025609D02*
X0324631Y0025690D01*
X0324637Y0025771D01*
X0324647Y0025852D01*
X0324661Y0025932D01*
X0324678Y0026012D01*
X0324700Y0026090D01*
X0324725Y0026167D01*
X0324754Y0026243D01*
X0324787Y0026318D01*
X0324823Y0026391D01*
X0324863Y0026462D01*
X0324906Y0026530D01*
X0324953Y0026597D01*
X0325002Y0026662D01*
X0325055Y0026723D01*
X0325111Y0026783D01*
X0325170Y0026839D01*
X0325231Y0026893D01*
X0325295Y0026943D01*
X0325361Y0026990D01*
X0325429Y0027035D01*
X0325499Y0027075D01*
X0325572Y0027112D01*
X0325646Y0027146D01*
X0325721Y0027176D01*
X0325798Y0027202D01*
X0325877Y0027225D01*
X0325956Y0027243D01*
X0326036Y0027258D01*
X0326116Y0027269D01*
X0326197Y0027276D01*
X0326279Y0027279D01*
X0326360Y0027278D01*
X0326441Y0027273D01*
X0326522Y0027264D01*
X0326602Y0027251D01*
X0326682Y0027235D01*
X0326761Y0027214D01*
X0326838Y0027190D01*
X0326915Y0027161D01*
X0326989Y0027130D01*
X0327063Y0027094D01*
X0327134Y0027055D01*
X0327203Y0027013D01*
X0327271Y0026967D01*
X0327336Y0026918D01*
X0327398Y0026866D01*
X0327458Y0026811D01*
X0327515Y0026753D01*
X0327570Y0026693D01*
X0327621Y0026630D01*
X0327669Y0026564D01*
X0327714Y0026496D01*
X0327755Y0026426D01*
X0327793Y0026354D01*
X0327828Y0026281D01*
X0327859Y0026206D01*
X0327886Y0026129D01*
X0327909Y0026051D01*
X0327929Y0025972D01*
X0327945Y0025892D01*
X0327957Y0025812D01*
X0327965Y0025731D01*
X0327969Y0025650D01*
X0327969Y0025568D01*
X0327965Y0025487D01*
X0327957Y0025406D01*
X0327945Y0025326D01*
X0327929Y0025246D01*
X0327909Y0025167D01*
X0327886Y0025089D01*
X0327859Y0025012D01*
X0327828Y0024937D01*
X0327793Y0024864D01*
X0327755Y0024792D01*
X0327714Y0024722D01*
X0327669Y0024654D01*
X0327621Y0024588D01*
X0327570Y0024525D01*
X0327515Y0024465D01*
X0327458Y0024407D01*
X0327398Y0024352D01*
X0327336Y0024300D01*
X0327271Y0024251D01*
X0327203Y0024205D01*
X0327134Y0024163D01*
X0327063Y0024124D01*
X0326989Y0024088D01*
X0326915Y0024057D01*
X0326838Y0024028D01*
X0326761Y0024004D01*
X0326682Y0023983D01*
X0326602Y0023967D01*
X0326522Y0023954D01*
X0326441Y0023945D01*
X0326360Y0023940D01*
X0326279Y0023939D01*
X0326197Y0023942D01*
X0326116Y0023949D01*
X0326036Y0023960D01*
X0325956Y0023975D01*
X0325877Y0023993D01*
X0325798Y0024016D01*
X0325721Y0024042D01*
X0325646Y0024072D01*
X0325572Y0024106D01*
X0325499Y0024143D01*
X0325429Y0024183D01*
X0325361Y0024228D01*
X0325295Y0024275D01*
X0325231Y0024325D01*
X0325170Y0024379D01*
X0325111Y0024435D01*
X0325055Y0024495D01*
X0325002Y0024556D01*
X0324953Y0024621D01*
X0324906Y0024688D01*
X0324863Y0024756D01*
X0324823Y0024827D01*
X0324787Y0024900D01*
X0324754Y0024975D01*
X0324725Y0025051D01*
X0324700Y0025128D01*
X0324678Y0025206D01*
X0324661Y0025286D01*
X0324647Y0025366D01*
X0324637Y0025447D01*
X0324631Y0025528D01*
X0324629Y0025609D01*
X0343996Y0015097D02*
X0343996Y0162105D01*
X0576004Y0162105D01*
X0576004Y0015097D01*
X0343996Y0015097D01*
X0564629Y0025609D02*
X0564631Y0025690D01*
X0564637Y0025771D01*
X0564647Y0025852D01*
X0564661Y0025932D01*
X0564678Y0026012D01*
X0564700Y0026090D01*
X0564725Y0026167D01*
X0564754Y0026243D01*
X0564787Y0026318D01*
X0564823Y0026391D01*
X0564863Y0026462D01*
X0564906Y0026530D01*
X0564953Y0026597D01*
X0565002Y0026662D01*
X0565055Y0026723D01*
X0565111Y0026783D01*
X0565170Y0026839D01*
X0565231Y0026893D01*
X0565295Y0026943D01*
X0565361Y0026990D01*
X0565429Y0027035D01*
X0565499Y0027075D01*
X0565572Y0027112D01*
X0565646Y0027146D01*
X0565721Y0027176D01*
X0565798Y0027202D01*
X0565877Y0027225D01*
X0565956Y0027243D01*
X0566036Y0027258D01*
X0566116Y0027269D01*
X0566197Y0027276D01*
X0566279Y0027279D01*
X0566360Y0027278D01*
X0566441Y0027273D01*
X0566522Y0027264D01*
X0566602Y0027251D01*
X0566682Y0027235D01*
X0566761Y0027214D01*
X0566838Y0027190D01*
X0566915Y0027161D01*
X0566989Y0027130D01*
X0567063Y0027094D01*
X0567134Y0027055D01*
X0567203Y0027013D01*
X0567271Y0026967D01*
X0567336Y0026918D01*
X0567398Y0026866D01*
X0567458Y0026811D01*
X0567515Y0026753D01*
X0567570Y0026693D01*
X0567621Y0026630D01*
X0567669Y0026564D01*
X0567714Y0026496D01*
X0567755Y0026426D01*
X0567793Y0026354D01*
X0567828Y0026281D01*
X0567859Y0026206D01*
X0567886Y0026129D01*
X0567909Y0026051D01*
X0567929Y0025972D01*
X0567945Y0025892D01*
X0567957Y0025812D01*
X0567965Y0025731D01*
X0567969Y0025650D01*
X0567969Y0025568D01*
X0567965Y0025487D01*
X0567957Y0025406D01*
X0567945Y0025326D01*
X0567929Y0025246D01*
X0567909Y0025167D01*
X0567886Y0025089D01*
X0567859Y0025012D01*
X0567828Y0024937D01*
X0567793Y0024864D01*
X0567755Y0024792D01*
X0567714Y0024722D01*
X0567669Y0024654D01*
X0567621Y0024588D01*
X0567570Y0024525D01*
X0567515Y0024465D01*
X0567458Y0024407D01*
X0567398Y0024352D01*
X0567336Y0024300D01*
X0567271Y0024251D01*
X0567203Y0024205D01*
X0567134Y0024163D01*
X0567063Y0024124D01*
X0566989Y0024088D01*
X0566915Y0024057D01*
X0566838Y0024028D01*
X0566761Y0024004D01*
X0566682Y0023983D01*
X0566602Y0023967D01*
X0566522Y0023954D01*
X0566441Y0023945D01*
X0566360Y0023940D01*
X0566279Y0023939D01*
X0566197Y0023942D01*
X0566116Y0023949D01*
X0566036Y0023960D01*
X0565956Y0023975D01*
X0565877Y0023993D01*
X0565798Y0024016D01*
X0565721Y0024042D01*
X0565646Y0024072D01*
X0565572Y0024106D01*
X0565499Y0024143D01*
X0565429Y0024183D01*
X0565361Y0024228D01*
X0565295Y0024275D01*
X0565231Y0024325D01*
X0565170Y0024379D01*
X0565111Y0024435D01*
X0565055Y0024495D01*
X0565002Y0024556D01*
X0564953Y0024621D01*
X0564906Y0024688D01*
X0564863Y0024756D01*
X0564823Y0024827D01*
X0564787Y0024900D01*
X0564754Y0024975D01*
X0564725Y0025051D01*
X0564700Y0025128D01*
X0564678Y0025206D01*
X0564661Y0025286D01*
X0564647Y0025366D01*
X0564637Y0025447D01*
X0564631Y0025528D01*
X0564629Y0025609D01*
X0571004Y0245097D02*
X0338996Y0245097D01*
X0338996Y0392105D01*
X0571004Y0392105D01*
X0571004Y0245097D01*
X0559629Y0255609D02*
X0559631Y0255690D01*
X0559637Y0255771D01*
X0559647Y0255852D01*
X0559661Y0255932D01*
X0559678Y0256012D01*
X0559700Y0256090D01*
X0559725Y0256167D01*
X0559754Y0256243D01*
X0559787Y0256318D01*
X0559823Y0256391D01*
X0559863Y0256462D01*
X0559906Y0256530D01*
X0559953Y0256597D01*
X0560002Y0256662D01*
X0560055Y0256723D01*
X0560111Y0256783D01*
X0560170Y0256839D01*
X0560231Y0256893D01*
X0560295Y0256943D01*
X0560361Y0256990D01*
X0560429Y0257035D01*
X0560499Y0257075D01*
X0560572Y0257112D01*
X0560646Y0257146D01*
X0560721Y0257176D01*
X0560798Y0257202D01*
X0560877Y0257225D01*
X0560956Y0257243D01*
X0561036Y0257258D01*
X0561116Y0257269D01*
X0561197Y0257276D01*
X0561279Y0257279D01*
X0561360Y0257278D01*
X0561441Y0257273D01*
X0561522Y0257264D01*
X0561602Y0257251D01*
X0561682Y0257235D01*
X0561761Y0257214D01*
X0561838Y0257190D01*
X0561915Y0257161D01*
X0561989Y0257130D01*
X0562063Y0257094D01*
X0562134Y0257055D01*
X0562203Y0257013D01*
X0562271Y0256967D01*
X0562336Y0256918D01*
X0562398Y0256866D01*
X0562458Y0256811D01*
X0562515Y0256753D01*
X0562570Y0256693D01*
X0562621Y0256630D01*
X0562669Y0256564D01*
X0562714Y0256496D01*
X0562755Y0256426D01*
X0562793Y0256354D01*
X0562828Y0256281D01*
X0562859Y0256206D01*
X0562886Y0256129D01*
X0562909Y0256051D01*
X0562929Y0255972D01*
X0562945Y0255892D01*
X0562957Y0255812D01*
X0562965Y0255731D01*
X0562969Y0255650D01*
X0562969Y0255568D01*
X0562965Y0255487D01*
X0562957Y0255406D01*
X0562945Y0255326D01*
X0562929Y0255246D01*
X0562909Y0255167D01*
X0562886Y0255089D01*
X0562859Y0255012D01*
X0562828Y0254937D01*
X0562793Y0254864D01*
X0562755Y0254792D01*
X0562714Y0254722D01*
X0562669Y0254654D01*
X0562621Y0254588D01*
X0562570Y0254525D01*
X0562515Y0254465D01*
X0562458Y0254407D01*
X0562398Y0254352D01*
X0562336Y0254300D01*
X0562271Y0254251D01*
X0562203Y0254205D01*
X0562134Y0254163D01*
X0562063Y0254124D01*
X0561989Y0254088D01*
X0561915Y0254057D01*
X0561838Y0254028D01*
X0561761Y0254004D01*
X0561682Y0253983D01*
X0561602Y0253967D01*
X0561522Y0253954D01*
X0561441Y0253945D01*
X0561360Y0253940D01*
X0561279Y0253939D01*
X0561197Y0253942D01*
X0561116Y0253949D01*
X0561036Y0253960D01*
X0560956Y0253975D01*
X0560877Y0253993D01*
X0560798Y0254016D01*
X0560721Y0254042D01*
X0560646Y0254072D01*
X0560572Y0254106D01*
X0560499Y0254143D01*
X0560429Y0254183D01*
X0560361Y0254228D01*
X0560295Y0254275D01*
X0560231Y0254325D01*
X0560170Y0254379D01*
X0560111Y0254435D01*
X0560055Y0254495D01*
X0560002Y0254556D01*
X0559953Y0254621D01*
X0559906Y0254688D01*
X0559863Y0254756D01*
X0559823Y0254827D01*
X0559787Y0254900D01*
X0559754Y0254975D01*
X0559725Y0255051D01*
X0559700Y0255128D01*
X0559678Y0255206D01*
X0559661Y0255286D01*
X0559647Y0255366D01*
X0559637Y0255447D01*
X0559631Y0255528D01*
X0559629Y0255609D01*
X0326004Y0245097D02*
X0326004Y0392105D01*
X0093996Y0392105D01*
X0093996Y0245097D01*
X0326004Y0245097D01*
X0314629Y0255609D02*
X0314631Y0255690D01*
X0314637Y0255771D01*
X0314647Y0255852D01*
X0314661Y0255932D01*
X0314678Y0256012D01*
X0314700Y0256090D01*
X0314725Y0256167D01*
X0314754Y0256243D01*
X0314787Y0256318D01*
X0314823Y0256391D01*
X0314863Y0256462D01*
X0314906Y0256530D01*
X0314953Y0256597D01*
X0315002Y0256662D01*
X0315055Y0256723D01*
X0315111Y0256783D01*
X0315170Y0256839D01*
X0315231Y0256893D01*
X0315295Y0256943D01*
X0315361Y0256990D01*
X0315429Y0257035D01*
X0315499Y0257075D01*
X0315572Y0257112D01*
X0315646Y0257146D01*
X0315721Y0257176D01*
X0315798Y0257202D01*
X0315877Y0257225D01*
X0315956Y0257243D01*
X0316036Y0257258D01*
X0316116Y0257269D01*
X0316197Y0257276D01*
X0316279Y0257279D01*
X0316360Y0257278D01*
X0316441Y0257273D01*
X0316522Y0257264D01*
X0316602Y0257251D01*
X0316682Y0257235D01*
X0316761Y0257214D01*
X0316838Y0257190D01*
X0316915Y0257161D01*
X0316989Y0257130D01*
X0317063Y0257094D01*
X0317134Y0257055D01*
X0317203Y0257013D01*
X0317271Y0256967D01*
X0317336Y0256918D01*
X0317398Y0256866D01*
X0317458Y0256811D01*
X0317515Y0256753D01*
X0317570Y0256693D01*
X0317621Y0256630D01*
X0317669Y0256564D01*
X0317714Y0256496D01*
X0317755Y0256426D01*
X0317793Y0256354D01*
X0317828Y0256281D01*
X0317859Y0256206D01*
X0317886Y0256129D01*
X0317909Y0256051D01*
X0317929Y0255972D01*
X0317945Y0255892D01*
X0317957Y0255812D01*
X0317965Y0255731D01*
X0317969Y0255650D01*
X0317969Y0255568D01*
X0317965Y0255487D01*
X0317957Y0255406D01*
X0317945Y0255326D01*
X0317929Y0255246D01*
X0317909Y0255167D01*
X0317886Y0255089D01*
X0317859Y0255012D01*
X0317828Y0254937D01*
X0317793Y0254864D01*
X0317755Y0254792D01*
X0317714Y0254722D01*
X0317669Y0254654D01*
X0317621Y0254588D01*
X0317570Y0254525D01*
X0317515Y0254465D01*
X0317458Y0254407D01*
X0317398Y0254352D01*
X0317336Y0254300D01*
X0317271Y0254251D01*
X0317203Y0254205D01*
X0317134Y0254163D01*
X0317063Y0254124D01*
X0316989Y0254088D01*
X0316915Y0254057D01*
X0316838Y0254028D01*
X0316761Y0254004D01*
X0316682Y0253983D01*
X0316602Y0253967D01*
X0316522Y0253954D01*
X0316441Y0253945D01*
X0316360Y0253940D01*
X0316279Y0253939D01*
X0316197Y0253942D01*
X0316116Y0253949D01*
X0316036Y0253960D01*
X0315956Y0253975D01*
X0315877Y0253993D01*
X0315798Y0254016D01*
X0315721Y0254042D01*
X0315646Y0254072D01*
X0315572Y0254106D01*
X0315499Y0254143D01*
X0315429Y0254183D01*
X0315361Y0254228D01*
X0315295Y0254275D01*
X0315231Y0254325D01*
X0315170Y0254379D01*
X0315111Y0254435D01*
X0315055Y0254495D01*
X0315002Y0254556D01*
X0314953Y0254621D01*
X0314906Y0254688D01*
X0314863Y0254756D01*
X0314823Y0254827D01*
X0314787Y0254900D01*
X0314754Y0254975D01*
X0314725Y0255051D01*
X0314700Y0255128D01*
X0314678Y0255206D01*
X0314661Y0255286D01*
X0314647Y0255366D01*
X0314637Y0255447D01*
X0314631Y0255528D01*
X0314629Y0255609D01*
D11*
X0017306Y0012075D02*
X0017306Y0010540D01*
X0018074Y0009773D01*
X0021143Y0009773D01*
X0021910Y0010540D01*
X0021910Y0012075D01*
X0021143Y0012842D01*
X0020376Y0014376D02*
X0021910Y0015911D01*
X0017306Y0015911D01*
X0017306Y0014376D02*
X0017306Y0017446D01*
X0018074Y0018980D02*
X0017306Y0019748D01*
X0017306Y0021282D01*
X0018074Y0022050D01*
X0018841Y0022050D01*
X0019608Y0021282D01*
X0019608Y0020515D01*
X0019608Y0021282D02*
X0020376Y0022050D01*
X0021143Y0022050D01*
X0021910Y0021282D01*
X0021910Y0019748D01*
X0021143Y0018980D01*
X0018074Y0012842D02*
X0017306Y0012075D01*
X0030992Y0026101D02*
X0030992Y0026868D01*
X0027923Y0029937D01*
X0027923Y0030705D01*
X0030992Y0030705D01*
X0034061Y0030705D02*
X0034061Y0026101D01*
X0032527Y0026101D02*
X0035596Y0026101D01*
X0037131Y0026101D02*
X0038665Y0027636D01*
X0037898Y0027636D02*
X0040200Y0027636D01*
X0040200Y0026101D02*
X0040200Y0030705D01*
X0037898Y0030705D01*
X0037131Y0029937D01*
X0037131Y0028403D01*
X0037898Y0027636D01*
X0035596Y0029170D02*
X0034061Y0030705D01*
X0024733Y0041201D02*
X0023198Y0041201D01*
X0022431Y0041968D01*
X0020896Y0041201D02*
X0017827Y0041201D01*
X0019361Y0041201D02*
X0019361Y0045805D01*
X0020896Y0044270D01*
X0022431Y0045037D02*
X0023198Y0045805D01*
X0024733Y0045805D01*
X0025500Y0045037D01*
X0025500Y0041968D01*
X0024733Y0041201D01*
X0024633Y0045901D02*
X0023098Y0045901D01*
X0022331Y0046668D01*
X0020796Y0046668D02*
X0020029Y0045901D01*
X0018494Y0045901D01*
X0017727Y0046668D01*
X0017727Y0047436D01*
X0018494Y0048203D01*
X0019261Y0048203D01*
X0018494Y0048203D02*
X0017727Y0048970D01*
X0017727Y0049737D01*
X0018494Y0050505D01*
X0020029Y0050505D01*
X0020796Y0049737D01*
X0022331Y0049737D02*
X0023098Y0050505D01*
X0024633Y0050505D01*
X0025400Y0049737D01*
X0025400Y0046668D01*
X0024633Y0045901D01*
X0016292Y0044270D02*
X0014758Y0045805D01*
X0014758Y0041201D01*
X0016292Y0041201D02*
X0013223Y0041201D01*
X0100900Y0085101D02*
X0105504Y0085101D01*
X0105504Y0087403D01*
X0104737Y0088170D01*
X0103202Y0088170D01*
X0102435Y0087403D01*
X0102435Y0085101D01*
X0102435Y0086636D02*
X0100900Y0088170D01*
X0100900Y0089705D02*
X0100900Y0092774D01*
X0100900Y0091239D02*
X0105504Y0091239D01*
X0103969Y0089705D01*
X0103969Y0094309D02*
X0104737Y0094309D01*
X0105504Y0095076D01*
X0105504Y0096611D01*
X0104737Y0097378D01*
X0103969Y0097378D01*
X0103202Y0096611D01*
X0103202Y0095076D01*
X0103969Y0094309D01*
X0103202Y0095076D02*
X0102435Y0094309D01*
X0101667Y0094309D01*
X0100900Y0095076D01*
X0100900Y0096611D01*
X0101667Y0097378D01*
X0102435Y0097378D01*
X0103202Y0096611D01*
X0214730Y0080826D02*
X0215497Y0081594D01*
X0217032Y0081594D01*
X0217799Y0080826D01*
X0219334Y0079292D02*
X0222403Y0079292D01*
X0220101Y0081594D01*
X0220101Y0076990D01*
X0217799Y0076990D02*
X0214730Y0080059D01*
X0214730Y0080826D01*
X0214730Y0076990D02*
X0217799Y0076990D01*
X0223938Y0077757D02*
X0223938Y0078525D01*
X0224705Y0079292D01*
X0226240Y0079292D01*
X0227007Y0080059D01*
X0227007Y0080826D01*
X0226240Y0081594D01*
X0224705Y0081594D01*
X0223938Y0080826D01*
X0225472Y0082361D02*
X0225472Y0076223D01*
X0224705Y0076990D02*
X0223938Y0077757D01*
X0224705Y0076990D02*
X0226240Y0076990D01*
X0227007Y0077757D01*
X0228542Y0077757D02*
X0228542Y0081594D01*
X0231611Y0081594D02*
X0231611Y0077757D01*
X0230844Y0076990D01*
X0229309Y0076990D01*
X0228542Y0077757D01*
X0454730Y0079292D02*
X0457799Y0079292D01*
X0455497Y0081594D01*
X0455497Y0076990D01*
X0459334Y0076990D02*
X0462403Y0076990D01*
X0460869Y0076990D02*
X0460869Y0081594D01*
X0462403Y0080059D01*
X0463938Y0080826D02*
X0464705Y0081594D01*
X0466240Y0081594D01*
X0467007Y0080826D01*
X0467007Y0080059D01*
X0466240Y0079292D01*
X0464705Y0079292D01*
X0463938Y0078525D01*
X0463938Y0077757D01*
X0464705Y0076990D01*
X0466240Y0076990D01*
X0467007Y0077757D01*
X0468542Y0077757D02*
X0468542Y0081594D01*
X0471611Y0081594D02*
X0471611Y0077757D01*
X0470844Y0076990D01*
X0469309Y0076990D01*
X0468542Y0077757D01*
X0465472Y0076223D02*
X0465472Y0082361D01*
X0460472Y0306223D02*
X0460472Y0312361D01*
X0459705Y0311594D02*
X0458938Y0310826D01*
X0459705Y0311594D02*
X0461240Y0311594D01*
X0462007Y0310826D01*
X0462007Y0310059D01*
X0461240Y0309292D01*
X0459705Y0309292D01*
X0458938Y0308525D01*
X0458938Y0307757D01*
X0459705Y0306990D01*
X0461240Y0306990D01*
X0462007Y0307757D01*
X0463542Y0307757D02*
X0463542Y0311594D01*
X0466611Y0311594D02*
X0466611Y0307757D01*
X0465844Y0306990D01*
X0464309Y0306990D01*
X0463542Y0307757D01*
X0457403Y0306990D02*
X0454334Y0306990D01*
X0455869Y0306990D02*
X0455869Y0311594D01*
X0457403Y0310059D01*
X0221611Y0311594D02*
X0221611Y0307757D01*
X0220844Y0306990D01*
X0219309Y0306990D01*
X0218542Y0307757D01*
X0218542Y0311594D01*
X0217007Y0310826D02*
X0216240Y0311594D01*
X0214705Y0311594D01*
X0213938Y0310826D01*
X0212403Y0310826D02*
X0211636Y0311594D01*
X0210101Y0311594D01*
X0209334Y0310826D01*
X0209334Y0310059D01*
X0212403Y0306990D01*
X0209334Y0306990D01*
X0207799Y0306990D02*
X0204730Y0310059D01*
X0204730Y0310826D01*
X0205497Y0311594D01*
X0207032Y0311594D01*
X0207799Y0310826D01*
X0207799Y0306990D02*
X0204730Y0306990D01*
X0213938Y0307757D02*
X0213938Y0308525D01*
X0214705Y0309292D01*
X0216240Y0309292D01*
X0217007Y0310059D01*
X0217007Y0310826D01*
X0215472Y0312361D02*
X0215472Y0306223D01*
X0214705Y0306990D02*
X0213938Y0307757D01*
X0214705Y0306990D02*
X0216240Y0306990D01*
X0217007Y0307757D01*
D12*
X0031997Y0109152D02*
X0031246Y0109152D01*
X0030996Y0108902D01*
X0030996Y0108402D01*
X0031246Y0108151D01*
X0031997Y0108151D01*
X0031997Y0107651D02*
X0031997Y0109152D01*
X0031496Y0108151D02*
X0030996Y0107651D01*
X0030523Y0107901D02*
X0030273Y0107651D01*
X0029773Y0107651D01*
X0029522Y0107901D01*
X0029522Y0108151D01*
X0029773Y0108402D01*
X0030023Y0108402D01*
X0029773Y0108402D02*
X0029522Y0108652D01*
X0029522Y0108902D01*
X0029773Y0109152D01*
X0030273Y0109152D01*
X0030523Y0108902D01*
X0030523Y0102152D02*
X0030523Y0100651D01*
X0031023Y0100651D02*
X0030022Y0100651D01*
X0031023Y0101652D02*
X0030523Y0102152D01*
X0031496Y0101902D02*
X0031496Y0101402D01*
X0031746Y0101151D01*
X0032497Y0101151D01*
X0032497Y0100651D02*
X0032497Y0102152D01*
X0031746Y0102152D01*
X0031496Y0101902D01*
X0031996Y0101151D02*
X0031496Y0100651D01*
X0031907Y0088231D02*
X0032158Y0088231D01*
X0032408Y0087980D01*
X0032408Y0087230D01*
X0031907Y0087230D01*
X0031657Y0087480D01*
X0031657Y0087980D01*
X0031907Y0088231D01*
X0032908Y0087730D02*
X0032408Y0087230D01*
X0032908Y0086757D02*
X0033158Y0086507D01*
X0033158Y0086007D01*
X0032908Y0085756D01*
X0031907Y0085756D01*
X0031657Y0086007D01*
X0031657Y0086507D01*
X0031907Y0086757D01*
X0032908Y0087730D02*
X0033158Y0088231D01*
X0043250Y0088524D02*
X0043250Y0087523D01*
X0044251Y0088524D01*
X0044501Y0088524D01*
X0044751Y0088274D01*
X0044751Y0087774D01*
X0044501Y0087523D01*
X0044501Y0087051D02*
X0044751Y0086801D01*
X0044751Y0086300D01*
X0044501Y0086050D01*
X0043500Y0086050D01*
X0043250Y0086300D01*
X0043250Y0086801D01*
X0043500Y0087051D01*
X0057957Y0082956D02*
X0057957Y0082455D01*
X0058207Y0082205D01*
X0058207Y0081733D02*
X0057957Y0081483D01*
X0057957Y0080982D01*
X0058207Y0080732D01*
X0059208Y0080732D01*
X0059458Y0080982D01*
X0059458Y0081483D01*
X0059208Y0081733D01*
X0059458Y0082205D02*
X0058708Y0082205D01*
X0058958Y0082706D01*
X0058958Y0082956D01*
X0058708Y0083206D01*
X0058207Y0083206D01*
X0057957Y0082956D01*
X0059458Y0083206D02*
X0059458Y0082205D01*
X0073863Y0083562D02*
X0075364Y0083562D01*
X0075364Y0084312D01*
X0075114Y0084563D01*
X0074613Y0084563D01*
X0074363Y0084312D01*
X0074363Y0083562D01*
X0074363Y0084062D02*
X0073863Y0084563D01*
X0074113Y0085035D02*
X0073863Y0085285D01*
X0073863Y0085786D01*
X0074113Y0086036D01*
X0074363Y0086036D01*
X0074613Y0085786D01*
X0074613Y0085536D01*
X0074613Y0085786D02*
X0074863Y0086036D01*
X0075114Y0086036D01*
X0075364Y0085786D01*
X0075364Y0085285D01*
X0075114Y0085035D01*
X0075114Y0086508D02*
X0075364Y0086759D01*
X0075364Y0087259D01*
X0075114Y0087509D01*
X0074113Y0086508D01*
X0073863Y0086759D01*
X0073863Y0087259D01*
X0074113Y0087509D01*
X0075114Y0087509D01*
X0075114Y0086508D02*
X0074113Y0086508D01*
X0078854Y0068145D02*
X0078604Y0067895D01*
X0079604Y0066894D01*
X0079354Y0066644D01*
X0078854Y0066644D01*
X0078604Y0066894D01*
X0078604Y0067895D01*
X0078854Y0068145D02*
X0079354Y0068145D01*
X0079604Y0067895D01*
X0079604Y0066894D01*
X0080077Y0066644D02*
X0081078Y0066644D01*
X0080577Y0066644D02*
X0080577Y0068145D01*
X0081078Y0067645D01*
X0081550Y0067895D02*
X0081800Y0068145D01*
X0082301Y0068145D01*
X0082551Y0067895D01*
X0082551Y0066894D01*
X0082301Y0066644D01*
X0081800Y0066644D01*
X0081550Y0066894D01*
X0081508Y0056652D02*
X0082009Y0056652D01*
X0082259Y0056402D01*
X0082259Y0055401D01*
X0082009Y0055151D01*
X0081508Y0055151D01*
X0081258Y0055401D01*
X0080785Y0055401D02*
X0080785Y0055151D01*
X0080785Y0055401D02*
X0079785Y0056402D01*
X0079785Y0056652D01*
X0080785Y0056652D01*
X0081258Y0056402D02*
X0081508Y0056652D01*
X0073394Y0022173D02*
X0073394Y0021172D01*
X0074144Y0021923D01*
X0072643Y0021923D01*
X0072893Y0020700D02*
X0072643Y0020450D01*
X0072643Y0019949D01*
X0072893Y0019699D01*
X0073894Y0019699D01*
X0074144Y0019949D01*
X0074144Y0020450D01*
X0073894Y0020700D01*
X0062351Y0021129D02*
X0062101Y0020878D01*
X0061851Y0020878D01*
X0061601Y0021129D01*
X0061601Y0021879D01*
X0062101Y0021879D02*
X0062351Y0021629D01*
X0062351Y0021129D01*
X0062101Y0020406D02*
X0062351Y0020156D01*
X0062351Y0019655D01*
X0062101Y0019405D01*
X0061100Y0019405D01*
X0060850Y0019655D01*
X0060850Y0020156D01*
X0061100Y0020406D01*
X0061100Y0020878D02*
X0060850Y0021129D01*
X0060850Y0021629D01*
X0061100Y0021879D01*
X0062101Y0021879D01*
D13*
X0082700Y0077801D02*
X0094100Y0077801D01*
X0094100Y0080801D01*
X0082700Y0080801D01*
X0082700Y0077801D01*
M02*
