G75*
%MOIN*%
%OFA0B0*%
%FSLAX25Y25*%
%IPPOS*%
%LPD*%
%AMOC8*
5,1,8,0,0,1.08239X$1,22.5*
%
%ADD10R,0.03150X0.03150*%
%ADD11R,0.03937X0.04331*%
%ADD12R,0.04331X0.03937*%
%ADD13R,0.07098X0.06299*%
%ADD14R,0.05906X0.06299*%
%ADD15R,0.12598X0.07087*%
%ADD16R,0.01181X0.04724*%
%ADD17R,0.04724X0.01181*%
%ADD18C,0.01181*%
%ADD19R,0.03937X0.01772*%
%ADD20R,0.03937X0.05512*%
%ADD21R,0.07087X0.06299*%
%ADD22R,0.04300X0.11400*%
%ADD23R,0.07087X0.12598*%
%ADD24R,0.04000X0.10600*%
%ADD25R,0.40000X0.35200*%
%ADD26R,0.06299X0.07098*%
%ADD27R,0.06299X0.07087*%
%ADD28R,0.06102X0.05906*%
%ADD29R,0.05315X0.01575*%
%ADD30R,0.02756X0.01772*%
%ADD31R,0.03500X0.03100*%
%ADD32R,0.09449X0.07087*%
%ADD33R,0.04724X0.06299*%
%ADD34R,0.12992X0.06299*%
%ADD35R,0.13504X0.06496*%
%ADD36R,0.05000X0.11496*%
%ADD37R,0.06496X0.13504*%
%ADD38R,0.11496X0.05000*%
D10*
X0153047Y0065701D03*
X0158953Y0065701D03*
X0135000Y0090648D03*
X0135000Y0096554D03*
X0135000Y0105648D03*
X0135000Y0111554D03*
X0367047Y0028601D03*
X0372953Y0028601D03*
X0375000Y0095648D03*
X0375000Y0101554D03*
X0375000Y0110648D03*
X0375000Y0116554D03*
X0352953Y0253601D03*
X0347047Y0253601D03*
X0370000Y0325648D03*
X0370000Y0331554D03*
X0370000Y0340648D03*
X0370000Y0346554D03*
X0136580Y0288162D03*
X0130674Y0288162D03*
X0125000Y0325648D03*
X0125000Y0331554D03*
X0125000Y0340648D03*
X0125000Y0346554D03*
X0691969Y0367026D03*
X0697874Y0367026D03*
D11*
X0530000Y0375254D03*
X0530000Y0381947D03*
X0520000Y0381947D03*
X0520000Y0375254D03*
X0505000Y0375254D03*
X0505000Y0381947D03*
X0378346Y0308601D03*
X0371654Y0308601D03*
X0343346Y0313601D03*
X0336654Y0313601D03*
X0340000Y0367754D03*
X0340000Y0374447D03*
X0280000Y0376947D03*
X0270000Y0376947D03*
X0270000Y0370254D03*
X0280000Y0370254D03*
X0260000Y0370254D03*
X0260000Y0376947D03*
X0133346Y0308601D03*
X0126654Y0308601D03*
X0105000Y0367754D03*
X0105000Y0374447D03*
X0048000Y0217847D03*
X0042246Y0217801D03*
X0035554Y0217801D03*
X0048000Y0211154D03*
X0042146Y0206101D03*
X0035454Y0206101D03*
X0030846Y0189301D03*
X0024154Y0189301D03*
X0024154Y0182301D03*
X0030846Y0182301D03*
X0030846Y0175301D03*
X0024154Y0175301D03*
X0024154Y0168301D03*
X0030846Y0168301D03*
X0105000Y0154447D03*
X0105000Y0147754D03*
X0013300Y0110247D03*
X0013300Y0103554D03*
X0101254Y0083001D03*
X0107946Y0083001D03*
X0136654Y0078601D03*
X0143346Y0078601D03*
X0275000Y0130254D03*
X0275000Y0136947D03*
X0285000Y0136947D03*
X0295000Y0136947D03*
X0295000Y0130254D03*
X0285000Y0130254D03*
X0341654Y0083601D03*
X0348346Y0083601D03*
X0376654Y0078601D03*
X0383346Y0078601D03*
X0510000Y0140254D03*
X0510000Y0146947D03*
X0520000Y0146947D03*
X0520000Y0140254D03*
X0530000Y0140254D03*
X0530000Y0146947D03*
D12*
X0560000Y0076947D03*
X0560000Y0070254D03*
X0560000Y0026947D03*
X0560000Y0020254D03*
X0385000Y0095254D03*
X0385000Y0101947D03*
X0385200Y0110254D03*
X0385200Y0116947D03*
X0354546Y0129301D03*
X0347854Y0129301D03*
X0320118Y0077853D03*
X0320118Y0071160D03*
X0145000Y0090254D03*
X0145000Y0096947D03*
X0145000Y0105254D03*
X0145000Y0111947D03*
X0099700Y0109847D03*
X0099700Y0103154D03*
X0080000Y0103054D03*
X0080000Y0109747D03*
X0080800Y0122054D03*
X0080800Y0128747D03*
X0100700Y0128647D03*
X0100700Y0121954D03*
X0081846Y0171701D03*
X0075154Y0171701D03*
X0065446Y0171501D03*
X0058754Y0171501D03*
X0096600Y0306654D03*
X0096600Y0313347D03*
X0135000Y0325254D03*
X0135000Y0331947D03*
X0135000Y0340254D03*
X0135000Y0346947D03*
X0310000Y0306947D03*
X0310000Y0300254D03*
X0380000Y0325254D03*
X0380000Y0331947D03*
X0380000Y0340254D03*
X0380000Y0346947D03*
X0555000Y0306947D03*
X0555000Y0300254D03*
X0092246Y0028501D03*
X0085554Y0028501D03*
X0036100Y0023847D03*
X0036100Y0017154D03*
D13*
X0375000Y0038002D03*
X0375000Y0049199D03*
X0350000Y0263002D03*
X0350000Y0274199D03*
D14*
X0093128Y0046722D03*
X0084072Y0046722D03*
X0084072Y0036880D03*
X0093128Y0036880D03*
D15*
X0042500Y0097477D03*
X0022300Y0097577D03*
X0022300Y0119625D03*
X0042500Y0119525D03*
D16*
X0042742Y0076839D03*
X0044710Y0076839D03*
X0046679Y0076839D03*
X0048647Y0076839D03*
X0050616Y0076839D03*
X0052584Y0076839D03*
X0054553Y0076839D03*
X0056521Y0076839D03*
X0058490Y0076839D03*
X0060458Y0076839D03*
X0062427Y0076839D03*
X0064395Y0076839D03*
X0066364Y0076839D03*
X0040773Y0076839D03*
X0038805Y0076839D03*
X0036836Y0076839D03*
X0036836Y0031563D03*
X0038805Y0031563D03*
X0040773Y0031563D03*
X0042742Y0031563D03*
X0044710Y0031563D03*
X0046679Y0031563D03*
X0048647Y0031563D03*
X0050616Y0031563D03*
X0052584Y0031563D03*
X0054553Y0031563D03*
X0056521Y0031563D03*
X0058490Y0031563D03*
X0060458Y0031563D03*
X0062427Y0031563D03*
X0064395Y0031563D03*
X0066364Y0031563D03*
D17*
X0074238Y0039437D03*
X0074238Y0041406D03*
X0074238Y0043374D03*
X0074238Y0045343D03*
X0074238Y0047311D03*
X0074238Y0049280D03*
X0074238Y0051248D03*
X0074238Y0053217D03*
X0074238Y0055185D03*
X0074238Y0057154D03*
X0074238Y0059122D03*
X0074238Y0061091D03*
X0074238Y0063059D03*
X0074238Y0065028D03*
X0074238Y0066996D03*
X0074238Y0068965D03*
X0028962Y0068965D03*
X0028962Y0066996D03*
X0028962Y0065028D03*
X0028962Y0063059D03*
X0028962Y0061091D03*
X0028962Y0059122D03*
X0028962Y0057154D03*
X0028962Y0055185D03*
X0028962Y0053217D03*
X0028962Y0051248D03*
X0028962Y0049280D03*
X0028962Y0047311D03*
X0028962Y0045343D03*
X0028962Y0043374D03*
X0028962Y0041406D03*
X0028962Y0039437D03*
D18*
X0020331Y0166923D02*
X0020331Y0169679D01*
X0020331Y0166923D02*
X0017575Y0166923D01*
X0017575Y0169679D01*
X0020331Y0169679D01*
X0020331Y0168103D02*
X0017575Y0168103D01*
X0017575Y0169283D02*
X0020331Y0169283D01*
X0020331Y0173923D02*
X0020331Y0176679D01*
X0020331Y0173923D02*
X0017575Y0173923D01*
X0017575Y0176679D01*
X0020331Y0176679D01*
X0020331Y0175103D02*
X0017575Y0175103D01*
X0017575Y0176283D02*
X0020331Y0176283D01*
X0013425Y0176679D02*
X0013425Y0173923D01*
X0010669Y0173923D01*
X0010669Y0176679D01*
X0013425Y0176679D01*
X0013425Y0175103D02*
X0010669Y0175103D01*
X0010669Y0176283D02*
X0013425Y0176283D01*
X0013425Y0180923D02*
X0013425Y0183679D01*
X0013425Y0180923D02*
X0010669Y0180923D01*
X0010669Y0183679D01*
X0013425Y0183679D01*
X0013425Y0182103D02*
X0010669Y0182103D01*
X0010669Y0183283D02*
X0013425Y0183283D01*
X0020331Y0183679D02*
X0020331Y0180923D01*
X0017575Y0180923D01*
X0017575Y0183679D01*
X0020331Y0183679D01*
X0020331Y0182103D02*
X0017575Y0182103D01*
X0017575Y0183283D02*
X0020331Y0183283D01*
X0020331Y0187923D02*
X0020331Y0190679D01*
X0020331Y0187923D02*
X0017575Y0187923D01*
X0017575Y0190679D01*
X0020331Y0190679D01*
X0020331Y0189103D02*
X0017575Y0189103D01*
X0017575Y0190283D02*
X0020331Y0190283D01*
X0013425Y0190679D02*
X0013425Y0187923D01*
X0010669Y0187923D01*
X0010669Y0190679D01*
X0013425Y0190679D01*
X0013425Y0189103D02*
X0010669Y0189103D01*
X0010669Y0190283D02*
X0013425Y0190283D01*
X0020012Y0204703D02*
X0020012Y0207459D01*
X0020012Y0204703D02*
X0017256Y0204703D01*
X0017256Y0207459D01*
X0020012Y0207459D01*
X0020012Y0205883D02*
X0017256Y0205883D01*
X0017256Y0207063D02*
X0020012Y0207063D01*
X0026917Y0207459D02*
X0026917Y0204703D01*
X0024161Y0204703D01*
X0024161Y0207459D01*
X0026917Y0207459D01*
X0026917Y0205883D02*
X0024161Y0205883D01*
X0024161Y0207063D02*
X0026917Y0207063D01*
X0026563Y0216396D02*
X0026563Y0219152D01*
X0026563Y0216396D02*
X0023807Y0216396D01*
X0023807Y0219152D01*
X0026563Y0219152D01*
X0026563Y0217576D02*
X0023807Y0217576D01*
X0023807Y0218756D02*
X0026563Y0218756D01*
X0019658Y0219152D02*
X0019658Y0216396D01*
X0016902Y0216396D01*
X0016902Y0219152D01*
X0019658Y0219152D01*
X0019658Y0217576D02*
X0016902Y0217576D01*
X0016902Y0218756D02*
X0019658Y0218756D01*
X0013425Y0169679D02*
X0013425Y0166923D01*
X0010669Y0166923D01*
X0010669Y0169679D01*
X0013425Y0169679D01*
X0013425Y0168103D02*
X0010669Y0168103D01*
X0010669Y0169283D02*
X0013425Y0169283D01*
D19*
X0019277Y0018462D03*
X0019277Y0021021D03*
X0019277Y0023580D03*
X0019277Y0026139D03*
X0028923Y0026139D03*
X0028923Y0023580D03*
X0028923Y0021021D03*
X0028923Y0018462D03*
D20*
X0085960Y0103870D03*
X0093440Y0103870D03*
X0089700Y0112532D03*
X0086960Y0122770D03*
X0094440Y0122770D03*
X0090700Y0131432D03*
G36*
X0060625Y0206854D02*
X0057842Y0209637D01*
X0061739Y0213534D01*
X0064522Y0210751D01*
X0060625Y0206854D01*
G37*
G36*
X0055336Y0212143D02*
X0052553Y0214926D01*
X0056450Y0218823D01*
X0059233Y0216040D01*
X0055336Y0212143D01*
G37*
G36*
X0064105Y0215623D02*
X0061322Y0218406D01*
X0065219Y0222303D01*
X0068002Y0219520D01*
X0064105Y0215623D01*
G37*
D21*
X0115000Y0159113D03*
X0125000Y0159113D03*
X0125000Y0148089D03*
X0115000Y0148089D03*
X0115000Y0368089D03*
X0125000Y0368089D03*
X0125000Y0379113D03*
X0115000Y0379113D03*
X0350000Y0379113D03*
X0360000Y0379113D03*
X0360000Y0368089D03*
X0350000Y0368089D03*
D22*
X0400000Y0363601D03*
X0400000Y0383601D03*
X0440000Y0383601D03*
X0440000Y0363601D03*
X0480000Y0363601D03*
X0480000Y0383601D03*
X0235000Y0383601D03*
X0235000Y0363601D03*
X0195000Y0363601D03*
X0195000Y0383601D03*
X0155000Y0383601D03*
X0155000Y0363601D03*
X0250000Y0168601D03*
X0250000Y0148601D03*
X0285000Y0148601D03*
X0285000Y0168601D03*
X0320000Y0168601D03*
X0320000Y0148601D03*
X0405000Y0153601D03*
X0405000Y0133601D03*
X0445000Y0133601D03*
X0445000Y0153601D03*
X0485000Y0153601D03*
X0485000Y0133601D03*
D23*
X0673976Y0383601D03*
X0696024Y0383601D03*
D24*
X0066100Y0230001D03*
X0056100Y0230001D03*
X0046100Y0230001D03*
D25*
X0056100Y0266201D03*
D26*
X0125643Y0296288D03*
X0136840Y0296288D03*
X0134902Y0066801D03*
X0146098Y0066801D03*
D27*
X0349488Y0138601D03*
X0360512Y0138601D03*
X0369488Y0138601D03*
X0380512Y0138601D03*
D28*
X0010709Y0139664D03*
X0010709Y0147538D03*
D29*
X0021339Y0148719D03*
X0021339Y0146160D03*
X0021339Y0143601D03*
X0021339Y0141042D03*
X0021339Y0138483D03*
D30*
X0030349Y0143226D03*
X0030349Y0146376D03*
X0036451Y0146376D03*
X0036451Y0143226D03*
D31*
X0044100Y0152001D03*
X0036100Y0155801D03*
X0044100Y0159601D03*
D32*
X0054100Y0163673D03*
X0054100Y0147728D03*
D33*
X0065445Y0163899D03*
X0074500Y0163899D03*
X0083555Y0163899D03*
D34*
X0074500Y0138702D03*
D35*
X0157224Y0155353D03*
X0223248Y0155353D03*
X0223248Y0040353D03*
X0242224Y0040353D03*
X0308248Y0040353D03*
X0402224Y0040353D03*
X0468248Y0040353D03*
X0487224Y0040353D03*
X0553248Y0040353D03*
X0157224Y0040353D03*
X0147224Y0275353D03*
X0213248Y0275353D03*
X0232224Y0275353D03*
X0298248Y0275353D03*
X0392224Y0275353D03*
X0458248Y0275353D03*
X0477224Y0275353D03*
X0543248Y0275353D03*
X0079648Y0314053D03*
X0013624Y0314053D03*
D36*
X0028920Y0292517D03*
X0040731Y0292517D03*
X0052542Y0292517D03*
X0064353Y0292517D03*
X0162520Y0253817D03*
X0174331Y0253817D03*
X0186142Y0253817D03*
X0197953Y0253817D03*
X0247520Y0253817D03*
X0259331Y0253817D03*
X0271142Y0253817D03*
X0282953Y0253817D03*
X0407520Y0253817D03*
X0419331Y0253817D03*
X0431142Y0253817D03*
X0442953Y0253817D03*
X0492520Y0253817D03*
X0504331Y0253817D03*
X0516142Y0253817D03*
X0527953Y0253817D03*
X0207953Y0133817D03*
X0196142Y0133817D03*
X0184331Y0133817D03*
X0172520Y0133817D03*
X0172520Y0018817D03*
X0184331Y0018817D03*
X0196142Y0018817D03*
X0207953Y0018817D03*
X0257520Y0018817D03*
X0269331Y0018817D03*
X0281142Y0018817D03*
X0292953Y0018817D03*
X0417520Y0018817D03*
X0429331Y0018817D03*
X0441142Y0018817D03*
X0452953Y0018817D03*
X0502520Y0018817D03*
X0514331Y0018817D03*
X0526142Y0018817D03*
X0537953Y0018817D03*
D37*
X0663248Y0020825D03*
X0663248Y0086849D03*
D38*
X0684783Y0071554D03*
X0684783Y0059743D03*
X0684783Y0047932D03*
X0684783Y0036121D03*
M02*
