G75*
%MOIN*%
%OFA0B0*%
%FSLAX25Y25*%
%IPPOS*%
%LPD*%
%AMOC8*
5,1,8,0,0,1.08239X$1,22.5*
%
%ADD10R,0.03950X0.03950*%
%ADD11R,0.04737X0.05131*%
%ADD12R,0.05131X0.04737*%
%ADD13R,0.07898X0.07099*%
%ADD14C,0.10800*%
%ADD15C,0.12808*%
%ADD16C,0.07718*%
%ADD17R,0.06706X0.07099*%
%ADD18R,0.13398X0.07887*%
%ADD19R,0.01981X0.05524*%
%ADD20R,0.05524X0.01981*%
%ADD21C,0.01421*%
%ADD22R,0.04737X0.02572*%
%ADD23R,0.04737X0.06312*%
%ADD24R,0.07887X0.07099*%
%ADD25C,0.19332*%
%ADD26R,0.05100X0.12200*%
%ADD27C,0.12611*%
%ADD28C,0.09687*%
%ADD29R,0.07887X0.13398*%
%ADD30R,0.05524X0.06312*%
%ADD31R,0.04800X0.11400*%
%ADD32R,0.40800X0.36000*%
%ADD33R,0.07099X0.07898*%
%ADD34R,0.07099X0.07887*%
%ADD35R,0.06902X0.06706*%
%ADD36R,0.06115X0.02375*%
%ADD37C,0.05750*%
%ADD38C,0.07128*%
%ADD39R,0.03556X0.02572*%
%ADD40R,0.04300X0.03900*%
%ADD41R,0.10249X0.07887*%
%ADD42R,0.05524X0.07099*%
%ADD43R,0.13792X0.07099*%
%ADD44R,0.14304X0.07296*%
%ADD45R,0.05800X0.12296*%
%ADD46R,0.07296X0.14304*%
%ADD47R,0.12296X0.05800*%
%ADD48C,0.05556*%
%ADD49C,0.06737*%
D10*
X0153047Y0060584D03*
X0158953Y0060584D03*
X0135000Y0085532D03*
X0135000Y0091437D03*
X0135000Y0100532D03*
X0135000Y0106437D03*
X0367047Y0023484D03*
X0372953Y0023484D03*
X0375000Y0090532D03*
X0375000Y0096437D03*
X0375000Y0105532D03*
X0375000Y0111437D03*
X0352953Y0248484D03*
X0347047Y0248484D03*
X0370000Y0320532D03*
X0370000Y0326437D03*
X0370000Y0335532D03*
X0370000Y0341437D03*
X0136580Y0283046D03*
X0130674Y0283046D03*
X0125000Y0320532D03*
X0125000Y0326437D03*
X0125000Y0335532D03*
X0125000Y0341437D03*
X0700000Y0390532D03*
X0700000Y0396437D03*
D11*
X0530000Y0376831D03*
X0530000Y0370138D03*
X0520000Y0370138D03*
X0520000Y0376831D03*
X0505000Y0376831D03*
X0505000Y0370138D03*
X0378346Y0303484D03*
X0371654Y0303484D03*
X0343346Y0308484D03*
X0336654Y0308484D03*
X0340000Y0362638D03*
X0340000Y0369331D03*
X0280000Y0371831D03*
X0280000Y0365138D03*
X0270000Y0365138D03*
X0270000Y0371831D03*
X0260000Y0371831D03*
X0260000Y0365138D03*
X0133346Y0303484D03*
X0126654Y0303484D03*
X0105000Y0362638D03*
X0105000Y0369331D03*
X0048000Y0212731D03*
X0042246Y0212684D03*
X0035554Y0212684D03*
X0048000Y0206038D03*
X0042146Y0200984D03*
X0035454Y0200984D03*
X0030846Y0184184D03*
X0024154Y0184184D03*
X0024154Y0177184D03*
X0030846Y0177184D03*
X0030846Y0170184D03*
X0024154Y0170184D03*
X0024154Y0163184D03*
X0030846Y0163184D03*
X0105000Y0149331D03*
X0105000Y0142638D03*
X0013300Y0105131D03*
X0013300Y0098438D03*
X0101254Y0077884D03*
X0107946Y0077884D03*
X0136654Y0073484D03*
X0143346Y0073484D03*
X0275000Y0125138D03*
X0275000Y0131831D03*
X0285000Y0131831D03*
X0295000Y0131831D03*
X0295000Y0125138D03*
X0285000Y0125138D03*
X0341654Y0078484D03*
X0348346Y0078484D03*
X0376654Y0073484D03*
X0383346Y0073484D03*
X0510000Y0135138D03*
X0510000Y0141831D03*
X0520000Y0141831D03*
X0520000Y0135138D03*
X0530000Y0135138D03*
X0530000Y0141831D03*
D12*
X0560000Y0071831D03*
X0560000Y0065138D03*
X0560000Y0021831D03*
X0560000Y0015138D03*
X0385000Y0090138D03*
X0385000Y0096831D03*
X0385200Y0105138D03*
X0385200Y0111831D03*
X0354546Y0124184D03*
X0347854Y0124184D03*
X0320000Y0071831D03*
X0320000Y0065138D03*
X0145000Y0085138D03*
X0145000Y0091831D03*
X0145000Y0100138D03*
X0145000Y0106831D03*
X0099700Y0104731D03*
X0099700Y0098038D03*
X0080000Y0097938D03*
X0080000Y0104631D03*
X0080800Y0116938D03*
X0080800Y0123631D03*
X0100700Y0123531D03*
X0100700Y0116838D03*
X0081846Y0166584D03*
X0075154Y0166584D03*
X0065446Y0166384D03*
X0058754Y0166384D03*
X0096600Y0301538D03*
X0096600Y0308231D03*
X0135000Y0320138D03*
X0135000Y0326831D03*
X0135000Y0335138D03*
X0135000Y0341831D03*
X0310000Y0301831D03*
X0310000Y0295138D03*
X0380000Y0320138D03*
X0380000Y0326831D03*
X0380000Y0335138D03*
X0380000Y0341831D03*
X0555000Y0301831D03*
X0555000Y0295138D03*
X0092246Y0023384D03*
X0085554Y0023384D03*
X0036100Y0018731D03*
X0036100Y0012038D03*
D13*
X0375000Y0032886D03*
X0375000Y0044083D03*
X0350000Y0257886D03*
X0350000Y0269083D03*
D14*
X0310000Y0283484D03*
X0310000Y0313484D03*
X0310000Y0343484D03*
X0555000Y0343484D03*
X0555000Y0313484D03*
X0555000Y0283484D03*
X0560000Y0113484D03*
X0560000Y0083484D03*
X0560000Y0053484D03*
X0320000Y0053484D03*
X0320000Y0083484D03*
X0320000Y0113484D03*
D15*
X0360000Y0113484D03*
X0360000Y0053484D03*
X0120000Y0053484D03*
X0120000Y0113484D03*
X0110000Y0283484D03*
X0110000Y0343484D03*
X0355000Y0343484D03*
X0355000Y0283484D03*
D16*
X0351063Y0297736D03*
X0358937Y0297736D03*
X0358937Y0305610D03*
X0351063Y0305610D03*
X0351063Y0313484D03*
X0358937Y0313484D03*
X0358937Y0321358D03*
X0351063Y0321358D03*
X0351063Y0329232D03*
X0358937Y0329232D03*
X0113937Y0329232D03*
X0113937Y0321358D03*
X0113937Y0313484D03*
X0113937Y0305610D03*
X0113937Y0297736D03*
X0106063Y0297736D03*
X0106063Y0305610D03*
X0106063Y0313484D03*
X0106063Y0321358D03*
X0106063Y0329232D03*
X0116063Y0099232D03*
X0123937Y0099232D03*
X0123937Y0091358D03*
X0116063Y0091358D03*
X0116063Y0083484D03*
X0123937Y0083484D03*
X0123937Y0075610D03*
X0116063Y0075610D03*
X0116063Y0067736D03*
X0123937Y0067736D03*
X0356063Y0067736D03*
X0363937Y0067736D03*
X0363937Y0075610D03*
X0356063Y0075610D03*
X0356063Y0083484D03*
X0363937Y0083484D03*
X0363937Y0091358D03*
X0356063Y0091358D03*
X0356063Y0099232D03*
X0363937Y0099232D03*
D17*
X0093128Y0041606D03*
X0084072Y0041606D03*
X0084072Y0031763D03*
X0093128Y0031763D03*
D18*
X0042500Y0092361D03*
X0022300Y0092461D03*
X0022300Y0114508D03*
X0042500Y0114408D03*
D19*
X0042742Y0071722D03*
X0044710Y0071722D03*
X0046679Y0071722D03*
X0048647Y0071722D03*
X0050616Y0071722D03*
X0052584Y0071722D03*
X0054553Y0071722D03*
X0056521Y0071722D03*
X0058490Y0071722D03*
X0060458Y0071722D03*
X0062427Y0071722D03*
X0064395Y0071722D03*
X0066364Y0071722D03*
X0040773Y0071722D03*
X0038805Y0071722D03*
X0036836Y0071722D03*
X0036836Y0026447D03*
X0038805Y0026447D03*
X0040773Y0026447D03*
X0042742Y0026447D03*
X0044710Y0026447D03*
X0046679Y0026447D03*
X0048647Y0026447D03*
X0050616Y0026447D03*
X0052584Y0026447D03*
X0054553Y0026447D03*
X0056521Y0026447D03*
X0058490Y0026447D03*
X0060458Y0026447D03*
X0062427Y0026447D03*
X0064395Y0026447D03*
X0066364Y0026447D03*
D20*
X0074238Y0034321D03*
X0074238Y0036289D03*
X0074238Y0038258D03*
X0074238Y0040226D03*
X0074238Y0042195D03*
X0074238Y0044163D03*
X0074238Y0046132D03*
X0074238Y0048100D03*
X0074238Y0050069D03*
X0074238Y0052037D03*
X0074238Y0054006D03*
X0074238Y0055974D03*
X0074238Y0057943D03*
X0074238Y0059911D03*
X0074238Y0061880D03*
X0074238Y0063848D03*
X0028962Y0063848D03*
X0028962Y0061880D03*
X0028962Y0059911D03*
X0028962Y0057943D03*
X0028962Y0055974D03*
X0028962Y0054006D03*
X0028962Y0052037D03*
X0028962Y0050069D03*
X0028962Y0048100D03*
X0028962Y0046132D03*
X0028962Y0044163D03*
X0028962Y0042195D03*
X0028962Y0040226D03*
X0028962Y0038258D03*
X0028962Y0036289D03*
X0028962Y0034321D03*
D21*
X0020611Y0161526D02*
X0020611Y0164842D01*
X0020611Y0161526D02*
X0017295Y0161526D01*
X0017295Y0164842D01*
X0020611Y0164842D01*
X0020611Y0162946D02*
X0017295Y0162946D01*
X0017295Y0164366D02*
X0020611Y0164366D01*
X0020611Y0168526D02*
X0020611Y0171842D01*
X0020611Y0168526D02*
X0017295Y0168526D01*
X0017295Y0171842D01*
X0020611Y0171842D01*
X0020611Y0169946D02*
X0017295Y0169946D01*
X0017295Y0171366D02*
X0020611Y0171366D01*
X0020611Y0175526D02*
X0020611Y0178842D01*
X0020611Y0175526D02*
X0017295Y0175526D01*
X0017295Y0178842D01*
X0020611Y0178842D01*
X0020611Y0176946D02*
X0017295Y0176946D01*
X0017295Y0178366D02*
X0020611Y0178366D01*
X0013705Y0178842D02*
X0013705Y0175526D01*
X0010389Y0175526D01*
X0010389Y0178842D01*
X0013705Y0178842D01*
X0013705Y0176946D02*
X0010389Y0176946D01*
X0010389Y0178366D02*
X0013705Y0178366D01*
X0013705Y0182526D02*
X0013705Y0185842D01*
X0013705Y0182526D02*
X0010389Y0182526D01*
X0010389Y0185842D01*
X0013705Y0185842D01*
X0013705Y0183946D02*
X0010389Y0183946D01*
X0010389Y0185366D02*
X0013705Y0185366D01*
X0020611Y0185842D02*
X0020611Y0182526D01*
X0017295Y0182526D01*
X0017295Y0185842D01*
X0020611Y0185842D01*
X0020611Y0183946D02*
X0017295Y0183946D01*
X0017295Y0185366D02*
X0020611Y0185366D01*
X0013705Y0171842D02*
X0013705Y0168526D01*
X0010389Y0168526D01*
X0010389Y0171842D01*
X0013705Y0171842D01*
X0013705Y0169946D02*
X0010389Y0169946D01*
X0010389Y0171366D02*
X0013705Y0171366D01*
X0013705Y0164842D02*
X0013705Y0161526D01*
X0010389Y0161526D01*
X0010389Y0164842D01*
X0013705Y0164842D01*
X0013705Y0162946D02*
X0010389Y0162946D01*
X0010389Y0164366D02*
X0013705Y0164366D01*
D22*
X0019277Y0013346D03*
X0019277Y0015905D03*
X0019277Y0018464D03*
X0019277Y0021023D03*
X0028923Y0021023D03*
X0028923Y0018464D03*
X0028923Y0015905D03*
X0028923Y0013346D03*
D23*
X0085960Y0098754D03*
X0093440Y0098754D03*
X0089700Y0107415D03*
X0086960Y0117654D03*
X0094440Y0117654D03*
X0090700Y0126315D03*
G36*
X0060625Y0201171D02*
X0057276Y0204520D01*
X0061739Y0208983D01*
X0065088Y0205634D01*
X0060625Y0201171D01*
G37*
G36*
X0055336Y0206461D02*
X0051987Y0209810D01*
X0056450Y0214273D01*
X0059799Y0210924D01*
X0055336Y0206461D01*
G37*
G36*
X0064105Y0209941D02*
X0060756Y0213290D01*
X0065219Y0217753D01*
X0068568Y0214404D01*
X0064105Y0209941D01*
G37*
D24*
X0115000Y0153996D03*
X0125000Y0153996D03*
X0125000Y0142973D03*
X0115000Y0142973D03*
X0115000Y0362973D03*
X0125000Y0362973D03*
X0125000Y0373996D03*
X0115000Y0373996D03*
X0350000Y0373996D03*
X0360000Y0373996D03*
X0360000Y0362973D03*
X0350000Y0362973D03*
D25*
X0365827Y0223484D03*
X0394173Y0223484D03*
X0440827Y0223484D03*
X0469173Y0223484D03*
X0515827Y0223484D03*
X0544173Y0223484D03*
X0544173Y0183484D03*
X0515827Y0183484D03*
X0469173Y0183484D03*
X0440827Y0183484D03*
X0394173Y0183484D03*
X0365827Y0183484D03*
X0325000Y0194311D03*
X0285000Y0194311D03*
X0245000Y0194311D03*
X0245000Y0222658D03*
X0285000Y0222658D03*
X0325000Y0222658D03*
D26*
X0320000Y0163484D03*
X0320000Y0143484D03*
X0285000Y0143484D03*
X0285000Y0163484D03*
X0250000Y0163484D03*
X0250000Y0143484D03*
X0405000Y0148484D03*
X0405000Y0128484D03*
X0445000Y0128484D03*
X0445000Y0148484D03*
X0485000Y0148484D03*
X0485000Y0128484D03*
X0480000Y0358484D03*
X0480000Y0378484D03*
X0440000Y0378484D03*
X0440000Y0358484D03*
X0400000Y0358484D03*
X0400000Y0378484D03*
X0235000Y0378484D03*
X0235000Y0358484D03*
X0195000Y0358484D03*
X0195000Y0378484D03*
X0155000Y0378484D03*
X0155000Y0358484D03*
D27*
X0583976Y0324744D03*
X0692008Y0324744D03*
D28*
X0671654Y0326043D03*
X0649213Y0326043D03*
X0626772Y0326043D03*
X0604331Y0326043D03*
X0604331Y0348484D03*
X0626772Y0348484D03*
X0649213Y0348484D03*
X0671654Y0348484D03*
D29*
X0673976Y0378484D03*
X0696024Y0378484D03*
D30*
X0026606Y0212784D03*
X0014794Y0212784D03*
X0014794Y0200984D03*
X0026606Y0200984D03*
D31*
X0046100Y0224884D03*
X0056100Y0224884D03*
X0066100Y0224884D03*
D32*
X0056100Y0261084D03*
D33*
X0125643Y0291171D03*
X0136840Y0291171D03*
X0134902Y0061684D03*
X0146098Y0061684D03*
D34*
X0349488Y0133484D03*
X0360512Y0133484D03*
X0369488Y0133484D03*
X0380512Y0133484D03*
D35*
X0010709Y0134547D03*
X0010709Y0142421D03*
D36*
X0021339Y0143602D03*
X0021339Y0141043D03*
X0021339Y0138484D03*
X0021339Y0135925D03*
X0021339Y0133366D03*
D37*
X0021339Y0128642D03*
X0021339Y0148327D03*
D38*
X0010709Y0152648D03*
X0010709Y0124321D03*
D39*
X0030349Y0138110D03*
X0030349Y0141259D03*
X0036451Y0141259D03*
X0036451Y0138110D03*
D40*
X0044100Y0146884D03*
X0036100Y0150684D03*
X0044100Y0154484D03*
D41*
X0054100Y0158557D03*
X0054100Y0142612D03*
D42*
X0065445Y0158783D03*
X0074500Y0158783D03*
X0083555Y0158783D03*
D43*
X0074500Y0133586D03*
D44*
X0157224Y0150236D03*
X0223248Y0150236D03*
X0223248Y0035236D03*
X0242224Y0035236D03*
X0308248Y0035236D03*
X0402224Y0035236D03*
X0468248Y0035236D03*
X0487224Y0035236D03*
X0553248Y0035236D03*
X0157224Y0035236D03*
X0147224Y0270236D03*
X0213248Y0270236D03*
X0232224Y0270236D03*
X0298248Y0270236D03*
X0392224Y0270236D03*
X0458248Y0270236D03*
X0477224Y0270236D03*
X0543248Y0270236D03*
X0079648Y0308936D03*
X0013624Y0308936D03*
D45*
X0028920Y0287401D03*
X0040731Y0287401D03*
X0052542Y0287401D03*
X0064353Y0287401D03*
X0162520Y0248701D03*
X0174331Y0248701D03*
X0186142Y0248701D03*
X0197953Y0248701D03*
X0247520Y0248701D03*
X0259331Y0248701D03*
X0271142Y0248701D03*
X0282953Y0248701D03*
X0407520Y0248701D03*
X0419331Y0248701D03*
X0431142Y0248701D03*
X0442953Y0248701D03*
X0492520Y0248701D03*
X0504331Y0248701D03*
X0516142Y0248701D03*
X0527953Y0248701D03*
X0207953Y0128701D03*
X0196142Y0128701D03*
X0184331Y0128701D03*
X0172520Y0128701D03*
X0172520Y0013701D03*
X0184331Y0013701D03*
X0196142Y0013701D03*
X0207953Y0013701D03*
X0257520Y0013701D03*
X0269331Y0013701D03*
X0281142Y0013701D03*
X0292953Y0013701D03*
X0417520Y0013701D03*
X0429331Y0013701D03*
X0441142Y0013701D03*
X0452953Y0013701D03*
X0502520Y0013701D03*
X0514331Y0013701D03*
X0526142Y0013701D03*
X0537953Y0013701D03*
D46*
X0663248Y0015709D03*
X0663248Y0081732D03*
D47*
X0684783Y0066437D03*
X0684783Y0054626D03*
X0684783Y0042815D03*
X0684783Y0031004D03*
D48*
X0082000Y0172284D03*
X0056400Y0180184D03*
X0058200Y0135484D03*
D49*
X0177000Y0110584D03*
X0187300Y0110584D03*
X0197500Y0110884D03*
M02*
