G75*
%MOIN*%
%OFA0B0*%
%FSLAX25Y25*%
%IPPOS*%
%LPD*%
%AMOC8*
5,1,8,0,0,1.08239X$1,22.5*
%
%ADD10R,0.03950X0.03950*%
%ADD11R,0.04737X0.05131*%
%ADD12R,0.05131X0.04737*%
%ADD13R,0.07898X0.07099*%
%ADD14C,0.10800*%
%ADD15C,0.12989*%
%ADD16C,0.08477*%
%ADD17R,0.04737X0.02572*%
%ADD18R,0.07887X0.07099*%
%ADD19C,0.23206*%
%ADD20C,0.12611*%
%ADD21C,0.11430*%
%ADD22R,0.07887X0.13398*%
%ADD23R,0.04800X0.11400*%
%ADD24R,0.40800X0.36000*%
%ADD25R,0.04737X0.06312*%
%ADD26R,0.07099X0.07898*%
%ADD27R,0.07099X0.07887*%
%ADD28R,0.14304X0.07296*%
%ADD29R,0.05800X0.10800*%
%ADD30OC8,0.06800*%
%ADD31C,0.01421*%
%ADD32R,0.02000X0.04700*%
%ADD33C,0.14643*%
%ADD34R,0.05918X0.06706*%
%ADD35OC8,0.07800*%
%ADD36C,0.06600*%
%ADD37R,0.08800X0.15800*%
%ADD38C,0.06800*%
%ADD39C,0.05556*%
%ADD40C,0.06737*%
D10*
X0149847Y0065701D03*
X0155753Y0065701D03*
X0131800Y0090648D03*
X0131800Y0096554D03*
X0131800Y0105648D03*
X0131800Y0111554D03*
X0363847Y0028601D03*
X0369753Y0028601D03*
X0371800Y0095648D03*
X0371800Y0101554D03*
X0371800Y0110648D03*
X0371800Y0116554D03*
X0349753Y0253601D03*
X0343847Y0253601D03*
X0366800Y0325648D03*
X0366800Y0331554D03*
X0366800Y0340648D03*
X0366800Y0346554D03*
X0133380Y0288162D03*
X0127474Y0288162D03*
X0121800Y0325648D03*
X0121800Y0331554D03*
X0121800Y0340648D03*
X0121800Y0346554D03*
X0688769Y0357184D03*
X0694674Y0357184D03*
D11*
X0526800Y0375254D03*
X0526800Y0381947D03*
X0516800Y0381947D03*
X0516800Y0375254D03*
X0501800Y0375254D03*
X0501800Y0381947D03*
X0375146Y0308601D03*
X0368454Y0308601D03*
X0340146Y0313601D03*
X0333454Y0313601D03*
X0336800Y0367754D03*
X0336800Y0374447D03*
X0276800Y0376947D03*
X0276800Y0370254D03*
X0266800Y0370254D03*
X0266800Y0376947D03*
X0256800Y0376947D03*
X0256800Y0370254D03*
X0130146Y0308601D03*
X0123454Y0308601D03*
X0101800Y0367754D03*
X0101800Y0374447D03*
X0044800Y0217847D03*
X0039046Y0217801D03*
X0032354Y0217801D03*
X0044800Y0211154D03*
X0112824Y0154447D03*
X0112824Y0147754D03*
X0104746Y0083001D03*
X0098054Y0083001D03*
X0133454Y0078601D03*
X0140146Y0078601D03*
X0255265Y0128286D03*
X0255265Y0134979D03*
X0265265Y0134979D03*
X0265265Y0128286D03*
X0274865Y0128486D03*
X0274865Y0135179D03*
X0338454Y0083601D03*
X0345146Y0083601D03*
X0373454Y0078601D03*
X0380146Y0078601D03*
X0506800Y0140254D03*
X0506800Y0146947D03*
X0516800Y0146947D03*
X0516800Y0140254D03*
X0526800Y0140254D03*
X0526800Y0146947D03*
D12*
X0556800Y0077774D03*
X0556800Y0071081D03*
X0556800Y0026947D03*
X0556800Y0020254D03*
X0381800Y0095254D03*
X0381800Y0101947D03*
X0382000Y0110254D03*
X0382000Y0116947D03*
X0352546Y0127501D03*
X0345854Y0127501D03*
X0316918Y0077853D03*
X0316918Y0071160D03*
X0141800Y0090254D03*
X0141800Y0096947D03*
X0141800Y0105254D03*
X0141800Y0111947D03*
X0032900Y0023847D03*
X0032900Y0017154D03*
X0306800Y0300254D03*
X0306800Y0306947D03*
X0376800Y0325254D03*
X0376800Y0331947D03*
X0376800Y0340254D03*
X0376800Y0346947D03*
X0551800Y0306947D03*
X0551800Y0300254D03*
X0131800Y0325254D03*
X0131800Y0331947D03*
X0131800Y0340254D03*
X0131800Y0346947D03*
X0093400Y0313347D03*
X0093400Y0306654D03*
D13*
X0346800Y0274199D03*
X0346800Y0263002D03*
X0371800Y0049199D03*
X0371800Y0038002D03*
D14*
X0316800Y0058601D03*
X0316800Y0088601D03*
X0316800Y0118601D03*
X0556800Y0118601D03*
X0556800Y0088601D03*
X0556800Y0058601D03*
X0551800Y0288601D03*
X0551800Y0318601D03*
X0551800Y0348601D03*
X0306800Y0348601D03*
X0306800Y0318601D03*
X0306800Y0288601D03*
D15*
X0351800Y0288601D03*
X0351800Y0348601D03*
X0106800Y0348601D03*
X0106800Y0288601D03*
X0116800Y0118601D03*
X0116800Y0058601D03*
X0356800Y0058601D03*
X0356800Y0118601D03*
D16*
X0352863Y0104349D03*
X0360737Y0104349D03*
X0360737Y0096475D03*
X0352863Y0096475D03*
X0352863Y0088601D03*
X0360737Y0088601D03*
X0360737Y0080727D03*
X0352863Y0080727D03*
X0352863Y0072853D03*
X0360737Y0072853D03*
X0120737Y0072853D03*
X0112863Y0072853D03*
X0112863Y0080727D03*
X0120737Y0080727D03*
X0120737Y0088601D03*
X0112863Y0088601D03*
X0112863Y0096475D03*
X0120737Y0096475D03*
X0120737Y0104349D03*
X0112863Y0104349D03*
X0110737Y0302853D03*
X0102863Y0302853D03*
X0102863Y0310727D03*
X0110737Y0310727D03*
X0110737Y0318601D03*
X0102863Y0318601D03*
X0102863Y0326475D03*
X0110737Y0326475D03*
X0110737Y0334349D03*
X0102863Y0334349D03*
X0347863Y0334349D03*
X0355737Y0334349D03*
X0355737Y0326475D03*
X0347863Y0326475D03*
X0347863Y0318601D03*
X0355737Y0318601D03*
X0355737Y0310727D03*
X0347863Y0310727D03*
X0347863Y0302853D03*
X0355737Y0302853D03*
D17*
X0016077Y0018462D03*
X0016077Y0021021D03*
X0016077Y0023580D03*
X0016077Y0026139D03*
X0025723Y0026139D03*
X0025723Y0023580D03*
X0025723Y0021021D03*
X0025723Y0018462D03*
D18*
X0122824Y0148089D03*
X0132824Y0148089D03*
X0132824Y0159113D03*
X0122824Y0159113D03*
X0121800Y0368089D03*
X0111800Y0368089D03*
X0111800Y0379113D03*
X0121800Y0379113D03*
X0346800Y0379113D03*
X0356800Y0379113D03*
X0356800Y0368089D03*
X0346800Y0368089D03*
D19*
X0362627Y0228601D03*
X0390973Y0228601D03*
X0437627Y0228601D03*
X0465973Y0228601D03*
X0512627Y0228601D03*
X0540973Y0228601D03*
X0540973Y0188601D03*
X0512627Y0188601D03*
X0465973Y0188601D03*
X0437627Y0188601D03*
X0390973Y0188601D03*
X0362627Y0188601D03*
X0321800Y0199428D03*
X0281800Y0199428D03*
X0241800Y0199428D03*
X0241800Y0227774D03*
X0281800Y0227774D03*
X0321800Y0227774D03*
D20*
X0579989Y0322774D03*
X0688020Y0322774D03*
D21*
X0667666Y0324073D03*
X0645225Y0324073D03*
X0622784Y0324073D03*
X0600343Y0324073D03*
X0600343Y0346514D03*
X0622784Y0346514D03*
X0645225Y0346514D03*
X0667666Y0346514D03*
D22*
X0670776Y0373758D03*
X0692824Y0373758D03*
D23*
X0062900Y0230001D03*
X0052900Y0230001D03*
X0042900Y0230001D03*
D24*
X0052900Y0266201D03*
D25*
G36*
X0060905Y0215057D02*
X0057556Y0218406D01*
X0062019Y0222869D01*
X0065368Y0219520D01*
X0060905Y0215057D01*
G37*
G36*
X0057425Y0206288D02*
X0054076Y0209637D01*
X0058539Y0214100D01*
X0061888Y0210751D01*
X0057425Y0206288D01*
G37*
G36*
X0052136Y0211577D02*
X0048787Y0214926D01*
X0053250Y0219389D01*
X0056599Y0216040D01*
X0052136Y0211577D01*
G37*
D26*
X0122443Y0296288D03*
X0133640Y0296288D03*
X0131702Y0066801D03*
X0142898Y0066801D03*
D27*
X0345988Y0135901D03*
X0357012Y0135901D03*
X0366588Y0135901D03*
X0377612Y0135901D03*
D28*
X0220048Y0148660D03*
X0154024Y0148660D03*
X0154024Y0040353D03*
X0220048Y0040353D03*
X0239024Y0040353D03*
X0305048Y0040353D03*
X0399024Y0040353D03*
X0465048Y0040353D03*
X0484024Y0040353D03*
X0550048Y0040353D03*
X0581072Y0040392D03*
X0647095Y0040392D03*
X0540048Y0266298D03*
X0474024Y0266298D03*
X0455048Y0266298D03*
X0389024Y0266298D03*
X0295048Y0267479D03*
X0229024Y0267479D03*
X0210048Y0267479D03*
X0144024Y0267479D03*
X0076448Y0314053D03*
X0010424Y0314053D03*
D29*
X0025720Y0301730D03*
X0037531Y0301730D03*
X0049342Y0301730D03*
X0061153Y0301730D03*
X0159320Y0255156D03*
X0171131Y0255156D03*
X0182942Y0255156D03*
X0194753Y0255156D03*
X0244320Y0255156D03*
X0256131Y0255156D03*
X0267942Y0255156D03*
X0279753Y0255156D03*
X0404320Y0253975D03*
X0416131Y0253975D03*
X0427942Y0253975D03*
X0439753Y0253975D03*
X0489320Y0253975D03*
X0501131Y0253975D03*
X0512942Y0253975D03*
X0524753Y0253975D03*
X0204753Y0136337D03*
X0192942Y0136337D03*
X0181131Y0136337D03*
X0169320Y0136337D03*
X0169320Y0028030D03*
X0181131Y0028030D03*
X0192942Y0028030D03*
X0204753Y0028030D03*
X0254320Y0028030D03*
X0266131Y0028030D03*
X0277942Y0028030D03*
X0289753Y0028030D03*
X0414320Y0028030D03*
X0426131Y0028030D03*
X0437942Y0028030D03*
X0449753Y0028030D03*
X0499320Y0028030D03*
X0511131Y0028030D03*
X0522942Y0028030D03*
X0534753Y0028030D03*
X0596367Y0028069D03*
X0608178Y0028069D03*
X0619989Y0028069D03*
X0631800Y0028069D03*
D30*
X0161032Y0221888D03*
X0065524Y0083050D03*
X0013476Y0077243D03*
X0013434Y0065077D03*
D31*
X0016738Y0216116D02*
X0016738Y0219432D01*
X0016738Y0216116D02*
X0013422Y0216116D01*
X0013422Y0219432D01*
X0016738Y0219432D01*
X0016738Y0217536D02*
X0013422Y0217536D01*
X0013422Y0218956D02*
X0016738Y0218956D01*
X0023643Y0219432D02*
X0023643Y0216116D01*
X0020327Y0216116D01*
X0020327Y0219432D01*
X0023643Y0219432D01*
X0023643Y0217536D02*
X0020327Y0217536D01*
X0020327Y0218956D02*
X0023643Y0218956D01*
D32*
X0586662Y0099964D03*
X0589221Y0099964D03*
X0591780Y0099964D03*
X0594339Y0099964D03*
X0596898Y0099964D03*
X0599457Y0099964D03*
X0602017Y0099964D03*
X0604576Y0099964D03*
X0607135Y0099964D03*
X0609694Y0099964D03*
X0612253Y0099964D03*
X0614812Y0099964D03*
X0617371Y0099964D03*
X0619930Y0099964D03*
X0619930Y0076989D03*
X0617371Y0076989D03*
X0614812Y0076989D03*
X0612253Y0076989D03*
X0609694Y0076989D03*
X0607135Y0076989D03*
X0604576Y0076989D03*
X0602017Y0076989D03*
X0599457Y0076989D03*
X0596898Y0076989D03*
X0594339Y0076989D03*
X0591780Y0076989D03*
X0589221Y0076989D03*
X0586662Y0076989D03*
D33*
X0681721Y0026987D03*
X0679989Y0391554D03*
X0020383Y0391554D03*
D34*
X0670418Y0117829D03*
X0677898Y0117829D03*
X0677611Y0108065D03*
X0670131Y0108065D03*
X0670131Y0098014D03*
X0677611Y0098014D03*
X0677686Y0087751D03*
X0670206Y0087751D03*
X0670194Y0076054D03*
X0677674Y0076054D03*
X0677926Y0066302D03*
X0670446Y0066302D03*
X0670756Y0056111D03*
X0678236Y0056111D03*
X0678230Y0046147D03*
X0670750Y0046147D03*
D35*
X0580383Y0238876D03*
X0580383Y0248876D03*
X0580383Y0258876D03*
X0580383Y0268876D03*
X0580383Y0278876D03*
X0580383Y0288876D03*
D36*
X0086170Y0172656D03*
X0076170Y0172656D03*
X0066170Y0172656D03*
X0056170Y0172656D03*
X0046170Y0172656D03*
X0036170Y0172656D03*
X0026170Y0172656D03*
X0026170Y0162656D03*
X0026170Y0152656D03*
X0026170Y0142656D03*
X0026170Y0132656D03*
X0026170Y0122656D03*
X0026170Y0112656D03*
X0026170Y0102656D03*
X0026170Y0092656D03*
X0026170Y0082656D03*
X0036170Y0082656D03*
X0036170Y0092656D03*
X0046170Y0102656D03*
X0056170Y0102656D03*
X0056170Y0112656D03*
X0046170Y0112656D03*
X0046170Y0122656D03*
X0056170Y0122656D03*
X0056170Y0132656D03*
X0046170Y0132656D03*
X0046170Y0142656D03*
X0056170Y0142656D03*
X0056170Y0152656D03*
X0046170Y0152656D03*
X0046170Y0162656D03*
X0056170Y0162656D03*
X0086170Y0162656D03*
X0086170Y0152656D03*
X0086170Y0142656D03*
X0086170Y0132656D03*
X0086170Y0122656D03*
X0086170Y0112656D03*
X0086170Y0102656D03*
X0086170Y0092656D03*
X0086170Y0082656D03*
X0086170Y0072656D03*
X0086170Y0062656D03*
X0086170Y0052656D03*
X0086170Y0042656D03*
X0036170Y0052656D03*
X0026170Y0052656D03*
X0026170Y0042656D03*
X0026170Y0062656D03*
X0026170Y0072656D03*
X0036170Y0072656D03*
D37*
X0242824Y0141862D03*
X0281800Y0142001D03*
X0320600Y0141801D03*
X0320600Y0171801D03*
X0281800Y0172001D03*
X0242824Y0171862D03*
X0404627Y0157987D03*
X0445800Y0157801D03*
X0485600Y0157801D03*
X0485600Y0127801D03*
X0445800Y0127801D03*
X0404627Y0127987D03*
X0397540Y0357908D03*
X0437800Y0358201D03*
X0479000Y0358201D03*
X0479000Y0388201D03*
X0437800Y0388201D03*
X0397540Y0387908D03*
X0231400Y0387601D03*
X0192000Y0387801D03*
X0153052Y0387908D03*
X0153052Y0357908D03*
X0192000Y0357801D03*
X0231400Y0357601D03*
D38*
X0690200Y0202101D02*
X0696200Y0202101D01*
X0696200Y0192101D02*
X0690200Y0192101D01*
X0690200Y0182101D02*
X0696200Y0182101D01*
X0696200Y0172101D02*
X0690200Y0172101D01*
X0690200Y0160101D02*
X0696200Y0160101D01*
X0696200Y0150101D02*
X0690200Y0150101D01*
X0690200Y0140101D02*
X0696200Y0140101D01*
X0696200Y0130101D02*
X0690200Y0130101D01*
X0690200Y0118101D02*
X0696200Y0118101D01*
X0696200Y0108101D02*
X0690200Y0108101D01*
X0690200Y0098101D02*
X0696200Y0098101D01*
X0696200Y0088101D02*
X0690200Y0088101D01*
X0690200Y0076101D02*
X0696200Y0076101D01*
X0696200Y0066101D02*
X0690200Y0066101D01*
X0690200Y0056101D02*
X0696200Y0056101D01*
X0696200Y0046101D02*
X0690200Y0046101D01*
D39*
X0053200Y0185301D03*
D40*
X0173800Y0115701D03*
X0184100Y0115701D03*
X0194300Y0116001D03*
X0193500Y0125301D03*
X0204300Y0124901D03*
X0204500Y0115901D03*
M02*
