%
M48
M72
T01C0.02000
T02C0.02362
T03C0.02756
T04C0.03800
T05C0.03937
T06C0.04000
T07C0.05118
T08C0.05984
T09C0.07087
T10C0.08189
T11C0.09843
T12C0.11811
T13C0.18406
%
T01
X18800Y32501
X28800Y30201
X158493Y231711
T02
X175713Y239936
X160200Y267601
X229700Y289601
X251900Y289001
X275300Y289801
X289400Y277201
X289989Y256121
X286800Y247301
X262200Y245801
X249831Y258483
X296400Y229001
X301500Y228401
X358400Y265801
X357700Y274901
X362000Y303001
X414500Y308001
X446600Y299201
X467300Y310201
X426300Y283001
X404320Y263081
X327100Y335801
X338257Y339625
X370700Y373201
X350500Y387201
X329700Y377201
X283100Y332801
X268500Y333401
X242700Y358401
X231700Y370801
X213100Y370601
X191100Y370601
X172300Y371401
X162600Y365501
X152900Y371401
X143300Y366601
X122900Y387401
X102700Y382201
X66500Y383601
X57500Y350401
X15100Y353201
X44320Y291160
X15300Y263401
X136700Y187401
X162700Y200401
X127500Y168001
X122624Y141101
X135600Y131501
X142500Y123701
X162100Y137801
X169300Y145801
X177300Y145801
X176100Y156101
X90300Y137801
X90300Y127601
X38400Y137801
X52800Y77101
X45501Y62813
X77800Y75101
X91200Y77801
X38300Y36101
X24063Y32164
X13800Y36101
X201300Y72401
X207000Y90401
X209100Y97001
X221700Y97301
X224100Y90401
X235500Y62201
X235500Y49901
X256131Y36829
X290400Y37601
X292200Y45101
X316500Y44501
X331200Y54701
X338100Y55301
X348900Y52901
X360300Y44201
X344400Y26201
X335900Y22865
X336000Y15701
X353900Y21801
X383700Y25001
X388400Y21801
X423000Y16601
X434700Y37901
X434700Y46301
X454200Y38001
X458099Y28562
X490500Y24401
X495000Y18401
X503100Y18401
X493200Y33701
X532500Y57401
X526200Y58001
X540300Y74801
X550800Y81401
X574500Y78701
X575100Y87701
X595000Y89001
X614700Y89801
X632400Y90401
X623700Y106001
X638100Y117401
X634800Y121901
X630900Y125501
X627600Y130301
X624000Y136601
X622200Y142601
X593100Y134201
X591300Y141401
X584800Y142001
X574200Y133901
X574800Y120701
X580800Y110801
X592800Y110801
X567600Y110801
X558000Y100001
X540900Y104801
X515500Y121801
X496700Y128401
X485900Y114601
X499700Y96001
X470100Y94601
X436500Y94001
X403700Y93601
X404300Y115401
X426100Y128401
X445700Y115201
X465500Y128801
X551100Y131801
X566400Y165101
X561000Y175301
X571100Y190801
X651300Y226001
X663000Y245201
X685500Y253001
X685200Y227501
X673900Y281401
X661300Y281801
X648100Y281601
X645100Y300801
X645100Y310401
X655100Y310201
X668500Y310001
X668700Y300001
X654900Y300001
X683300Y299001
X684700Y308401
X578500Y304601
X535600Y283801
X532700Y305401
X521500Y334601
X494700Y360001
X502100Y368401
X509100Y373401
X517300Y368201
X527300Y368201
X534100Y373201
X485700Y370601
X458900Y359201
X438500Y344601
X426500Y358801
X406900Y358401
X397300Y370801
X479700Y343001
X565900Y257401
X651300Y132101
X655200Y127901
X658800Y122801
X629700Y73001
X644100Y69701
X608400Y66401
X577500Y64601
X558000Y46901
X561900Y37301
X566800Y38601
X588600Y31901
X566700Y17201
X545700Y29201
X495300Y59201
X480700Y70401
X453500Y69801
X421500Y66801
X344400Y93601
X288300Y104601
X300900Y161801
X301500Y167501
X231500Y343401
X615400Y41601
X662900Y24001
T03
X53200Y185301
T04
X56170Y172656
X46170Y172656
X36170Y172656
X26170Y172656
X26170Y162656
X26170Y152656
X26170Y142656
X26170Y132656
X26170Y122656
X26170Y112656
X26170Y102656
X26170Y92656
X26170Y82656
X36170Y82656
X36170Y92656
X46170Y102656
X56170Y102656
X56170Y112656
X46170Y112656
X46170Y122656
X56170Y122656
X56170Y132656
X46170Y132656
X46170Y142656
X56170Y142656
X56170Y152656
X46170Y152656
X46170Y162656
X56170Y162656
X66170Y172656
X76170Y172656
X86170Y172656
X86170Y162656
X86170Y152656
X86170Y142656
X86170Y132656
X86170Y122656
X86170Y112656
X86170Y102656
X86170Y92656
X86170Y82656
X86170Y72656
X86170Y62656
X86170Y52656
X86170Y42656
X36170Y52656
X26170Y52656
X26170Y42656
X26170Y62656
X26170Y72656
X36170Y72656
T05
X173800Y115701
X184100Y115701
X194300Y116001
X193500Y125301
X204300Y124901
X204500Y115901
T06
X65524Y83050
X13476Y77243
X13434Y65077
X161032Y221888
X580383Y238876
X580383Y248876
X580383Y258876
X580383Y268876
X580383Y278876
X580383Y288876
X693200Y202101
X693200Y192101
X693200Y182101
X693200Y172101
X693200Y160101
X693200Y150101
X693200Y140101
X693200Y130101
X693200Y118101
X693200Y108101
X693200Y98101
X693200Y88101
X693200Y76101
X693200Y66101
X693200Y56101
X693200Y46101
T07
X360737Y72853
X352863Y72853
X352863Y80727
X360737Y80727
X360737Y88601
X352863Y88601
X352863Y96475
X360737Y96475
X360737Y104349
X352863Y104349
X120737Y104349
X112863Y104349
X112863Y96475
X120737Y96475
X120737Y88601
X112863Y88601
X112863Y80727
X120737Y80727
X120737Y72853
X112863Y72853
X110737Y302853
X102863Y302853
X102863Y310727
X110737Y310727
X110737Y318601
X102863Y318601
X102863Y326475
X110737Y326475
X110737Y334349
X102863Y334349
X347863Y334349
X355737Y334349
X355737Y326475
X347863Y326475
X347863Y318601
X355737Y318601
X355737Y310727
X347863Y310727
X347863Y302853
X355737Y302853
T08
X306800Y288601
X306800Y318601
X306800Y348601
X551800Y348601
X551800Y318601
X551800Y288601
X556800Y118601
X556800Y88601
X556800Y58601
X316800Y58601
X316800Y88601
X316800Y118601
T09
X600343Y324073
X622784Y324073
X645225Y324073
X667666Y324073
X667666Y346514
X645225Y346514
X622784Y346514
X600343Y346514
T10
X351800Y348601
X351800Y288601
X106800Y288601
X106800Y348601
X116800Y118601
X116800Y58601
X356800Y58601
X356800Y118601
T11
X681721Y26987
X679989Y391554
X20383Y391554
T12
X579989Y322774
X688020Y322774
T13
X540973Y228601
X512627Y228601
X465973Y228601
X437627Y228601
X390973Y228601
X362627Y228601
X321800Y227774
X281800Y227774
X241800Y227774
X241800Y199428
X281800Y199428
X321800Y199428
X362627Y188601
X390973Y188601
X437627Y188601
X465973Y188601
X512627Y188601
X540973Y188601
M30
