%
M48
M72
T01C0.02000
T02C0.02362
T03C0.02756
T04C0.03150
T05C0.03937
T06C0.04000
T07C0.04528
T08C0.05118
T09C0.05984
T10C0.07087
T11C0.08189
T12C0.11811
T13C0.13000
T14C0.16732
%
T01
X22000Y32501
X32000Y30201
X35000Y43401
X61300Y39601
X82400Y52901
X89100Y60001
X68300Y63201
X62100Y70301
X73500Y80701
X68200Y85101
X80100Y97001
X74700Y116301
X49500Y127101
X49600Y131801
X49700Y136501
X49800Y141301
X86000Y140601
X99600Y115401
X43700Y104701
X42600Y112201
X41600Y70901
X36100Y70501
X60100Y24101
X62700Y12801
X36600Y168101
X36500Y175701
X36000Y182301
X36100Y189501
X51300Y171401
X112100Y211801
T02
X13100Y16501
X15900Y30501
X27263Y32164
X42700Y44101
X64094Y49546
X50900Y70601
X50827Y84349
X45551Y85058
X43127Y90901
X21900Y109201
X17800Y68701
X18100Y62401
X99300Y46501
X115300Y43201
X117600Y27201
X172800Y73401
X202900Y52101
X228858Y79270
X254300Y106001
X283704Y83461
X347600Y93601
X405600Y120401
X444200Y119501
X486000Y121601
X501600Y85901
X534100Y85101
X535300Y59101
X538100Y39001
X538200Y28901
X570000Y38601
X500500Y60001
X466000Y60501
X432700Y74401
X465700Y86201
X457400Y38001
X460000Y28601
X470900Y18701
X490800Y16701
X494400Y24101
X437900Y37901
X435000Y28601
X416200Y33701
X391600Y21801
X357100Y21801
X339100Y22865
X339100Y13901
X324800Y19101
X333100Y33701
X347500Y40801
X289094Y33719
X261488Y29499
X140400Y101801
X104200Y99101
X105800Y127401
X123500Y134901
X114800Y141101
X137100Y151001
X166000Y174501
X192300Y160101
X129000Y186101
X183800Y199801
X188700Y222201
X178913Y239936
X146200Y240701
X116600Y238301
X84100Y241801
X112500Y265301
X69000Y305201
X45400Y305198
X30800Y303501
X16200Y280301
X33000Y330001
X27800Y364401
X30441Y390815
X57900Y392001
X160900Y334101
X144700Y333301
X166000Y318601
X186347Y332953
X230200Y328901
X247400Y311901
X274500Y337401
X235800Y349801
X288000Y307201
X244200Y280401
X253500Y259201
X237800Y251101
X278700Y242001
X290200Y260801
X330400Y272001
X332400Y264101
X360900Y274901
X372000Y280001
X407520Y263081
X431100Y264301
X431100Y275701
X429500Y283001
X413400Y304701
X365200Y303001
X341457Y339625
X417150Y351587
X440200Y352201
X464800Y333801
X480600Y352201
X504800Y366701
X520600Y365901
X530100Y366101
X517400Y346101
X528200Y329301
X532400Y299701
X516200Y275801
X516350Y263971
X492600Y264501
X492500Y273001
X576200Y290901
X579600Y315401
X669500Y303601
X672600Y270401
X671600Y235801
X673300Y196401
X674300Y150201
X650500Y119401
X684900Y108101
X611200Y120101
X592100Y87201
X665000Y53601
X590000Y178601
X575400Y247901
T03
X82000Y177401
X56400Y185301
X58200Y140601
T04
X21339Y133758
X21339Y153443
T05
X177000Y115701
X187300Y115701
X197500Y116001
T06
X147067Y173463
X138051Y191396
X119744Y204172
X71850Y123562
X87854Y93266
X94646Y69349
X22244Y75668
X20177Y54054
T07
X10709Y129438
X10709Y157764
T08
X116063Y104349
X123937Y104349
X123937Y96475
X116063Y96475
X116063Y88601
X123937Y88601
X123937Y80727
X116063Y80727
X116063Y72853
X123937Y72853
X356063Y72853
X363937Y72853
X363937Y80727
X356063Y80727
X356063Y88601
X363937Y88601
X363937Y96475
X356063Y96475
X356063Y104349
X363937Y104349
X358937Y302853
X351063Y302853
X351063Y310727
X358937Y310727
X358937Y318601
X351063Y318601
X351063Y326475
X358937Y326475
X358937Y334349
X351063Y334349
X113937Y334349
X106063Y334349
X106063Y326475
X113937Y326475
X113937Y318601
X106063Y318601
X106063Y310727
X113937Y310727
X113937Y302853
X106063Y302853
T09
X310000Y288601
X310000Y318601
X310000Y348601
X555000Y348601
X555000Y318601
X555000Y288601
X560000Y118601
X560000Y88601
X560000Y58601
X320000Y58601
X320000Y88601
X320000Y118601
T10
X604331Y331160
X626772Y331160
X649213Y331160
X671654Y331160
X671654Y353601
X649213Y353601
X626772Y353601
X604331Y353601
T11
X355000Y348601
X355000Y288601
X110000Y288601
X110000Y348601
X120000Y118601
X120000Y58601
X360000Y58601
X360000Y118601
T12
X583976Y329861
X692008Y329861
T13
X694370Y399625
X693110Y20491
X15079Y399625
T14
X245000Y227774
X285000Y227774
X325000Y227774
X365827Y228601
X394173Y228601
X440827Y228601
X469173Y228601
X515827Y228601
X544173Y228601
X544173Y188601
X515827Y188601
X469173Y188601
X440827Y188601
X394173Y188601
X365827Y188601
X325000Y199428
X285000Y199428
X245000Y199428
M30
