G75*
%MOIN*%
%OFA0B0*%
%FSLAX25Y25*%
%IPPOS*%
%LPD*%
%AMOC8*
5,1,8,0,0,1.08239X$1,22.5*
%
%ADD10C,0.00500*%
%ADD11C,0.00400*%
%ADD12C,0.00100*%
%ADD13C,0.00600*%
D10*
X0103996Y0009980D02*
X0103996Y0156988D01*
X0336004Y0156988D01*
X0336004Y0009980D01*
X0103996Y0009980D01*
X0324629Y0020492D02*
X0324631Y0020573D01*
X0324637Y0020654D01*
X0324647Y0020735D01*
X0324661Y0020815D01*
X0324678Y0020895D01*
X0324700Y0020973D01*
X0324725Y0021050D01*
X0324754Y0021126D01*
X0324787Y0021201D01*
X0324823Y0021274D01*
X0324863Y0021345D01*
X0324906Y0021413D01*
X0324953Y0021480D01*
X0325002Y0021545D01*
X0325055Y0021606D01*
X0325111Y0021666D01*
X0325170Y0021722D01*
X0325231Y0021776D01*
X0325295Y0021826D01*
X0325361Y0021873D01*
X0325429Y0021918D01*
X0325499Y0021958D01*
X0325572Y0021995D01*
X0325646Y0022029D01*
X0325721Y0022059D01*
X0325798Y0022085D01*
X0325877Y0022108D01*
X0325956Y0022126D01*
X0326036Y0022141D01*
X0326116Y0022152D01*
X0326197Y0022159D01*
X0326279Y0022162D01*
X0326360Y0022161D01*
X0326441Y0022156D01*
X0326522Y0022147D01*
X0326602Y0022134D01*
X0326682Y0022118D01*
X0326761Y0022097D01*
X0326838Y0022073D01*
X0326915Y0022044D01*
X0326989Y0022013D01*
X0327063Y0021977D01*
X0327134Y0021938D01*
X0327203Y0021896D01*
X0327271Y0021850D01*
X0327336Y0021801D01*
X0327398Y0021749D01*
X0327458Y0021694D01*
X0327515Y0021636D01*
X0327570Y0021576D01*
X0327621Y0021513D01*
X0327669Y0021447D01*
X0327714Y0021379D01*
X0327755Y0021309D01*
X0327793Y0021237D01*
X0327828Y0021164D01*
X0327859Y0021089D01*
X0327886Y0021012D01*
X0327909Y0020934D01*
X0327929Y0020855D01*
X0327945Y0020775D01*
X0327957Y0020695D01*
X0327965Y0020614D01*
X0327969Y0020533D01*
X0327969Y0020451D01*
X0327965Y0020370D01*
X0327957Y0020289D01*
X0327945Y0020209D01*
X0327929Y0020129D01*
X0327909Y0020050D01*
X0327886Y0019972D01*
X0327859Y0019895D01*
X0327828Y0019820D01*
X0327793Y0019747D01*
X0327755Y0019675D01*
X0327714Y0019605D01*
X0327669Y0019537D01*
X0327621Y0019471D01*
X0327570Y0019408D01*
X0327515Y0019348D01*
X0327458Y0019290D01*
X0327398Y0019235D01*
X0327336Y0019183D01*
X0327271Y0019134D01*
X0327203Y0019088D01*
X0327134Y0019046D01*
X0327063Y0019007D01*
X0326989Y0018971D01*
X0326915Y0018940D01*
X0326838Y0018911D01*
X0326761Y0018887D01*
X0326682Y0018866D01*
X0326602Y0018850D01*
X0326522Y0018837D01*
X0326441Y0018828D01*
X0326360Y0018823D01*
X0326279Y0018822D01*
X0326197Y0018825D01*
X0326116Y0018832D01*
X0326036Y0018843D01*
X0325956Y0018858D01*
X0325877Y0018876D01*
X0325798Y0018899D01*
X0325721Y0018925D01*
X0325646Y0018955D01*
X0325572Y0018989D01*
X0325499Y0019026D01*
X0325429Y0019066D01*
X0325361Y0019111D01*
X0325295Y0019158D01*
X0325231Y0019208D01*
X0325170Y0019262D01*
X0325111Y0019318D01*
X0325055Y0019378D01*
X0325002Y0019439D01*
X0324953Y0019504D01*
X0324906Y0019571D01*
X0324863Y0019639D01*
X0324823Y0019710D01*
X0324787Y0019783D01*
X0324754Y0019858D01*
X0324725Y0019934D01*
X0324700Y0020011D01*
X0324678Y0020089D01*
X0324661Y0020169D01*
X0324647Y0020249D01*
X0324637Y0020330D01*
X0324631Y0020411D01*
X0324629Y0020492D01*
X0343996Y0009980D02*
X0343996Y0156988D01*
X0576004Y0156988D01*
X0576004Y0009980D01*
X0343996Y0009980D01*
X0564629Y0020492D02*
X0564631Y0020573D01*
X0564637Y0020654D01*
X0564647Y0020735D01*
X0564661Y0020815D01*
X0564678Y0020895D01*
X0564700Y0020973D01*
X0564725Y0021050D01*
X0564754Y0021126D01*
X0564787Y0021201D01*
X0564823Y0021274D01*
X0564863Y0021345D01*
X0564906Y0021413D01*
X0564953Y0021480D01*
X0565002Y0021545D01*
X0565055Y0021606D01*
X0565111Y0021666D01*
X0565170Y0021722D01*
X0565231Y0021776D01*
X0565295Y0021826D01*
X0565361Y0021873D01*
X0565429Y0021918D01*
X0565499Y0021958D01*
X0565572Y0021995D01*
X0565646Y0022029D01*
X0565721Y0022059D01*
X0565798Y0022085D01*
X0565877Y0022108D01*
X0565956Y0022126D01*
X0566036Y0022141D01*
X0566116Y0022152D01*
X0566197Y0022159D01*
X0566279Y0022162D01*
X0566360Y0022161D01*
X0566441Y0022156D01*
X0566522Y0022147D01*
X0566602Y0022134D01*
X0566682Y0022118D01*
X0566761Y0022097D01*
X0566838Y0022073D01*
X0566915Y0022044D01*
X0566989Y0022013D01*
X0567063Y0021977D01*
X0567134Y0021938D01*
X0567203Y0021896D01*
X0567271Y0021850D01*
X0567336Y0021801D01*
X0567398Y0021749D01*
X0567458Y0021694D01*
X0567515Y0021636D01*
X0567570Y0021576D01*
X0567621Y0021513D01*
X0567669Y0021447D01*
X0567714Y0021379D01*
X0567755Y0021309D01*
X0567793Y0021237D01*
X0567828Y0021164D01*
X0567859Y0021089D01*
X0567886Y0021012D01*
X0567909Y0020934D01*
X0567929Y0020855D01*
X0567945Y0020775D01*
X0567957Y0020695D01*
X0567965Y0020614D01*
X0567969Y0020533D01*
X0567969Y0020451D01*
X0567965Y0020370D01*
X0567957Y0020289D01*
X0567945Y0020209D01*
X0567929Y0020129D01*
X0567909Y0020050D01*
X0567886Y0019972D01*
X0567859Y0019895D01*
X0567828Y0019820D01*
X0567793Y0019747D01*
X0567755Y0019675D01*
X0567714Y0019605D01*
X0567669Y0019537D01*
X0567621Y0019471D01*
X0567570Y0019408D01*
X0567515Y0019348D01*
X0567458Y0019290D01*
X0567398Y0019235D01*
X0567336Y0019183D01*
X0567271Y0019134D01*
X0567203Y0019088D01*
X0567134Y0019046D01*
X0567063Y0019007D01*
X0566989Y0018971D01*
X0566915Y0018940D01*
X0566838Y0018911D01*
X0566761Y0018887D01*
X0566682Y0018866D01*
X0566602Y0018850D01*
X0566522Y0018837D01*
X0566441Y0018828D01*
X0566360Y0018823D01*
X0566279Y0018822D01*
X0566197Y0018825D01*
X0566116Y0018832D01*
X0566036Y0018843D01*
X0565956Y0018858D01*
X0565877Y0018876D01*
X0565798Y0018899D01*
X0565721Y0018925D01*
X0565646Y0018955D01*
X0565572Y0018989D01*
X0565499Y0019026D01*
X0565429Y0019066D01*
X0565361Y0019111D01*
X0565295Y0019158D01*
X0565231Y0019208D01*
X0565170Y0019262D01*
X0565111Y0019318D01*
X0565055Y0019378D01*
X0565002Y0019439D01*
X0564953Y0019504D01*
X0564906Y0019571D01*
X0564863Y0019639D01*
X0564823Y0019710D01*
X0564787Y0019783D01*
X0564754Y0019858D01*
X0564725Y0019934D01*
X0564700Y0020011D01*
X0564678Y0020089D01*
X0564661Y0020169D01*
X0564647Y0020249D01*
X0564637Y0020330D01*
X0564631Y0020411D01*
X0564629Y0020492D01*
X0571004Y0239980D02*
X0338996Y0239980D01*
X0338996Y0386988D01*
X0571004Y0386988D01*
X0571004Y0239980D01*
X0559629Y0250492D02*
X0559631Y0250573D01*
X0559637Y0250654D01*
X0559647Y0250735D01*
X0559661Y0250815D01*
X0559678Y0250895D01*
X0559700Y0250973D01*
X0559725Y0251050D01*
X0559754Y0251126D01*
X0559787Y0251201D01*
X0559823Y0251274D01*
X0559863Y0251345D01*
X0559906Y0251413D01*
X0559953Y0251480D01*
X0560002Y0251545D01*
X0560055Y0251606D01*
X0560111Y0251666D01*
X0560170Y0251722D01*
X0560231Y0251776D01*
X0560295Y0251826D01*
X0560361Y0251873D01*
X0560429Y0251918D01*
X0560499Y0251958D01*
X0560572Y0251995D01*
X0560646Y0252029D01*
X0560721Y0252059D01*
X0560798Y0252085D01*
X0560877Y0252108D01*
X0560956Y0252126D01*
X0561036Y0252141D01*
X0561116Y0252152D01*
X0561197Y0252159D01*
X0561279Y0252162D01*
X0561360Y0252161D01*
X0561441Y0252156D01*
X0561522Y0252147D01*
X0561602Y0252134D01*
X0561682Y0252118D01*
X0561761Y0252097D01*
X0561838Y0252073D01*
X0561915Y0252044D01*
X0561989Y0252013D01*
X0562063Y0251977D01*
X0562134Y0251938D01*
X0562203Y0251896D01*
X0562271Y0251850D01*
X0562336Y0251801D01*
X0562398Y0251749D01*
X0562458Y0251694D01*
X0562515Y0251636D01*
X0562570Y0251576D01*
X0562621Y0251513D01*
X0562669Y0251447D01*
X0562714Y0251379D01*
X0562755Y0251309D01*
X0562793Y0251237D01*
X0562828Y0251164D01*
X0562859Y0251089D01*
X0562886Y0251012D01*
X0562909Y0250934D01*
X0562929Y0250855D01*
X0562945Y0250775D01*
X0562957Y0250695D01*
X0562965Y0250614D01*
X0562969Y0250533D01*
X0562969Y0250451D01*
X0562965Y0250370D01*
X0562957Y0250289D01*
X0562945Y0250209D01*
X0562929Y0250129D01*
X0562909Y0250050D01*
X0562886Y0249972D01*
X0562859Y0249895D01*
X0562828Y0249820D01*
X0562793Y0249747D01*
X0562755Y0249675D01*
X0562714Y0249605D01*
X0562669Y0249537D01*
X0562621Y0249471D01*
X0562570Y0249408D01*
X0562515Y0249348D01*
X0562458Y0249290D01*
X0562398Y0249235D01*
X0562336Y0249183D01*
X0562271Y0249134D01*
X0562203Y0249088D01*
X0562134Y0249046D01*
X0562063Y0249007D01*
X0561989Y0248971D01*
X0561915Y0248940D01*
X0561838Y0248911D01*
X0561761Y0248887D01*
X0561682Y0248866D01*
X0561602Y0248850D01*
X0561522Y0248837D01*
X0561441Y0248828D01*
X0561360Y0248823D01*
X0561279Y0248822D01*
X0561197Y0248825D01*
X0561116Y0248832D01*
X0561036Y0248843D01*
X0560956Y0248858D01*
X0560877Y0248876D01*
X0560798Y0248899D01*
X0560721Y0248925D01*
X0560646Y0248955D01*
X0560572Y0248989D01*
X0560499Y0249026D01*
X0560429Y0249066D01*
X0560361Y0249111D01*
X0560295Y0249158D01*
X0560231Y0249208D01*
X0560170Y0249262D01*
X0560111Y0249318D01*
X0560055Y0249378D01*
X0560002Y0249439D01*
X0559953Y0249504D01*
X0559906Y0249571D01*
X0559863Y0249639D01*
X0559823Y0249710D01*
X0559787Y0249783D01*
X0559754Y0249858D01*
X0559725Y0249934D01*
X0559700Y0250011D01*
X0559678Y0250089D01*
X0559661Y0250169D01*
X0559647Y0250249D01*
X0559637Y0250330D01*
X0559631Y0250411D01*
X0559629Y0250492D01*
X0326004Y0239980D02*
X0093996Y0239980D01*
X0093996Y0386988D01*
X0326004Y0386988D01*
X0326004Y0239980D01*
X0314629Y0250492D02*
X0314631Y0250573D01*
X0314637Y0250654D01*
X0314647Y0250735D01*
X0314661Y0250815D01*
X0314678Y0250895D01*
X0314700Y0250973D01*
X0314725Y0251050D01*
X0314754Y0251126D01*
X0314787Y0251201D01*
X0314823Y0251274D01*
X0314863Y0251345D01*
X0314906Y0251413D01*
X0314953Y0251480D01*
X0315002Y0251545D01*
X0315055Y0251606D01*
X0315111Y0251666D01*
X0315170Y0251722D01*
X0315231Y0251776D01*
X0315295Y0251826D01*
X0315361Y0251873D01*
X0315429Y0251918D01*
X0315499Y0251958D01*
X0315572Y0251995D01*
X0315646Y0252029D01*
X0315721Y0252059D01*
X0315798Y0252085D01*
X0315877Y0252108D01*
X0315956Y0252126D01*
X0316036Y0252141D01*
X0316116Y0252152D01*
X0316197Y0252159D01*
X0316279Y0252162D01*
X0316360Y0252161D01*
X0316441Y0252156D01*
X0316522Y0252147D01*
X0316602Y0252134D01*
X0316682Y0252118D01*
X0316761Y0252097D01*
X0316838Y0252073D01*
X0316915Y0252044D01*
X0316989Y0252013D01*
X0317063Y0251977D01*
X0317134Y0251938D01*
X0317203Y0251896D01*
X0317271Y0251850D01*
X0317336Y0251801D01*
X0317398Y0251749D01*
X0317458Y0251694D01*
X0317515Y0251636D01*
X0317570Y0251576D01*
X0317621Y0251513D01*
X0317669Y0251447D01*
X0317714Y0251379D01*
X0317755Y0251309D01*
X0317793Y0251237D01*
X0317828Y0251164D01*
X0317859Y0251089D01*
X0317886Y0251012D01*
X0317909Y0250934D01*
X0317929Y0250855D01*
X0317945Y0250775D01*
X0317957Y0250695D01*
X0317965Y0250614D01*
X0317969Y0250533D01*
X0317969Y0250451D01*
X0317965Y0250370D01*
X0317957Y0250289D01*
X0317945Y0250209D01*
X0317929Y0250129D01*
X0317909Y0250050D01*
X0317886Y0249972D01*
X0317859Y0249895D01*
X0317828Y0249820D01*
X0317793Y0249747D01*
X0317755Y0249675D01*
X0317714Y0249605D01*
X0317669Y0249537D01*
X0317621Y0249471D01*
X0317570Y0249408D01*
X0317515Y0249348D01*
X0317458Y0249290D01*
X0317398Y0249235D01*
X0317336Y0249183D01*
X0317271Y0249134D01*
X0317203Y0249088D01*
X0317134Y0249046D01*
X0317063Y0249007D01*
X0316989Y0248971D01*
X0316915Y0248940D01*
X0316838Y0248911D01*
X0316761Y0248887D01*
X0316682Y0248866D01*
X0316602Y0248850D01*
X0316522Y0248837D01*
X0316441Y0248828D01*
X0316360Y0248823D01*
X0316279Y0248822D01*
X0316197Y0248825D01*
X0316116Y0248832D01*
X0316036Y0248843D01*
X0315956Y0248858D01*
X0315877Y0248876D01*
X0315798Y0248899D01*
X0315721Y0248925D01*
X0315646Y0248955D01*
X0315572Y0248989D01*
X0315499Y0249026D01*
X0315429Y0249066D01*
X0315361Y0249111D01*
X0315295Y0249158D01*
X0315231Y0249208D01*
X0315170Y0249262D01*
X0315111Y0249318D01*
X0315055Y0249378D01*
X0315002Y0249439D01*
X0314953Y0249504D01*
X0314906Y0249571D01*
X0314863Y0249639D01*
X0314823Y0249710D01*
X0314787Y0249783D01*
X0314754Y0249858D01*
X0314725Y0249934D01*
X0314700Y0250011D01*
X0314678Y0250089D01*
X0314661Y0250169D01*
X0314647Y0250249D01*
X0314637Y0250330D01*
X0314631Y0250411D01*
X0314629Y0250492D01*
D11*
X0030992Y0021752D02*
X0027923Y0024821D01*
X0027923Y0025588D01*
X0030992Y0025588D01*
X0034061Y0025588D02*
X0034061Y0020984D01*
X0032527Y0020984D02*
X0035596Y0020984D01*
X0037131Y0020984D02*
X0038665Y0022519D01*
X0037898Y0022519D02*
X0040200Y0022519D01*
X0040200Y0020984D02*
X0040200Y0025588D01*
X0037898Y0025588D01*
X0037131Y0024821D01*
X0037131Y0023286D01*
X0037898Y0022519D01*
X0035596Y0024054D02*
X0034061Y0025588D01*
X0030992Y0021752D02*
X0030992Y0020984D01*
X0024733Y0036084D02*
X0023198Y0036084D01*
X0022431Y0036852D01*
X0020896Y0036084D02*
X0017827Y0036084D01*
X0019361Y0036084D02*
X0019361Y0040688D01*
X0020896Y0039154D01*
X0022431Y0039921D02*
X0023198Y0040688D01*
X0024733Y0040688D01*
X0025500Y0039921D01*
X0025500Y0036852D01*
X0024733Y0036084D01*
X0016292Y0036084D02*
X0013223Y0036084D01*
X0014758Y0036084D02*
X0014758Y0040688D01*
X0016292Y0039154D01*
X0018494Y0040784D02*
X0020029Y0040784D01*
X0020796Y0041552D01*
X0022331Y0041552D02*
X0023098Y0040784D01*
X0024633Y0040784D01*
X0025400Y0041552D01*
X0025400Y0044621D01*
X0024633Y0045388D01*
X0023098Y0045388D01*
X0022331Y0044621D01*
X0020796Y0044621D02*
X0020029Y0045388D01*
X0018494Y0045388D01*
X0017727Y0044621D01*
X0017727Y0043854D01*
X0018494Y0043086D01*
X0017727Y0042319D01*
X0017727Y0041552D01*
X0018494Y0040784D01*
X0018494Y0043086D02*
X0019261Y0043086D01*
X0100900Y0079984D02*
X0105504Y0079984D01*
X0105504Y0082286D01*
X0104737Y0083054D01*
X0103202Y0083054D01*
X0102435Y0082286D01*
X0102435Y0079984D01*
X0102435Y0081519D02*
X0100900Y0083054D01*
X0100900Y0084588D02*
X0100900Y0087658D01*
X0100900Y0086123D02*
X0105504Y0086123D01*
X0103969Y0084588D01*
X0103969Y0089192D02*
X0104737Y0089192D01*
X0105504Y0089960D01*
X0105504Y0091494D01*
X0104737Y0092261D01*
X0103969Y0092261D01*
X0103202Y0091494D01*
X0103202Y0089960D01*
X0103969Y0089192D01*
X0103202Y0089960D02*
X0102435Y0089192D01*
X0101667Y0089192D01*
X0100900Y0089960D01*
X0100900Y0091494D01*
X0101667Y0092261D01*
X0102435Y0092261D01*
X0103202Y0091494D01*
X0214730Y0075710D02*
X0215497Y0076477D01*
X0217032Y0076477D01*
X0217799Y0075710D01*
X0219334Y0074175D02*
X0222403Y0074175D01*
X0220101Y0076477D01*
X0220101Y0071873D01*
X0217799Y0071873D02*
X0214730Y0074943D01*
X0214730Y0075710D01*
X0214730Y0071873D02*
X0217799Y0071873D01*
X0223938Y0072641D02*
X0223938Y0073408D01*
X0224705Y0074175D01*
X0226240Y0074175D01*
X0227007Y0074943D01*
X0227007Y0075710D01*
X0226240Y0076477D01*
X0224705Y0076477D01*
X0223938Y0075710D01*
X0225472Y0077245D02*
X0225472Y0071106D01*
X0224705Y0071873D02*
X0223938Y0072641D01*
X0224705Y0071873D02*
X0226240Y0071873D01*
X0227007Y0072641D01*
X0228542Y0072641D02*
X0228542Y0076477D01*
X0231611Y0076477D02*
X0231611Y0072641D01*
X0230844Y0071873D01*
X0229309Y0071873D01*
X0228542Y0072641D01*
X0454730Y0074175D02*
X0457799Y0074175D01*
X0455497Y0076477D01*
X0455497Y0071873D01*
X0459334Y0071873D02*
X0462403Y0071873D01*
X0460869Y0071873D02*
X0460869Y0076477D01*
X0462403Y0074943D01*
X0463938Y0075710D02*
X0464705Y0076477D01*
X0466240Y0076477D01*
X0467007Y0075710D01*
X0467007Y0074943D01*
X0466240Y0074175D01*
X0464705Y0074175D01*
X0463938Y0073408D01*
X0463938Y0072641D01*
X0464705Y0071873D01*
X0466240Y0071873D01*
X0467007Y0072641D01*
X0468542Y0072641D02*
X0468542Y0076477D01*
X0471611Y0076477D02*
X0471611Y0072641D01*
X0470844Y0071873D01*
X0469309Y0071873D01*
X0468542Y0072641D01*
X0465472Y0071106D02*
X0465472Y0077245D01*
X0460472Y0301106D02*
X0460472Y0307245D01*
X0459705Y0306477D02*
X0461240Y0306477D01*
X0462007Y0305710D01*
X0462007Y0304943D01*
X0461240Y0304175D01*
X0459705Y0304175D01*
X0458938Y0303408D01*
X0458938Y0302641D01*
X0459705Y0301873D01*
X0461240Y0301873D01*
X0462007Y0302641D01*
X0463542Y0302641D02*
X0463542Y0306477D01*
X0466611Y0306477D02*
X0466611Y0302641D01*
X0465844Y0301873D01*
X0464309Y0301873D01*
X0463542Y0302641D01*
X0459705Y0306477D02*
X0458938Y0305710D01*
X0457403Y0304943D02*
X0455869Y0306477D01*
X0455869Y0301873D01*
X0457403Y0301873D02*
X0454334Y0301873D01*
X0221611Y0302641D02*
X0220844Y0301873D01*
X0219309Y0301873D01*
X0218542Y0302641D01*
X0218542Y0306477D01*
X0217007Y0305710D02*
X0216240Y0306477D01*
X0214705Y0306477D01*
X0213938Y0305710D01*
X0212403Y0305710D02*
X0211636Y0306477D01*
X0210101Y0306477D01*
X0209334Y0305710D01*
X0209334Y0304943D01*
X0212403Y0301873D01*
X0209334Y0301873D01*
X0207799Y0301873D02*
X0204730Y0304943D01*
X0204730Y0305710D01*
X0205497Y0306477D01*
X0207032Y0306477D01*
X0207799Y0305710D01*
X0207799Y0301873D02*
X0204730Y0301873D01*
X0213938Y0302641D02*
X0213938Y0303408D01*
X0214705Y0304175D01*
X0216240Y0304175D01*
X0217007Y0304943D01*
X0217007Y0305710D01*
X0215472Y0307245D02*
X0215472Y0301106D01*
X0214705Y0301873D02*
X0213938Y0302641D01*
X0214705Y0301873D02*
X0216240Y0301873D01*
X0217007Y0302641D01*
X0221611Y0302641D02*
X0221611Y0306477D01*
D12*
X0031997Y0104036D02*
X0031246Y0104036D01*
X0030996Y0103785D01*
X0030996Y0103285D01*
X0031246Y0103035D01*
X0031997Y0103035D01*
X0031997Y0102534D02*
X0031997Y0104036D01*
X0031496Y0103035D02*
X0030996Y0102534D01*
X0030523Y0102785D02*
X0030273Y0102534D01*
X0029773Y0102534D01*
X0029522Y0102785D01*
X0029522Y0103035D01*
X0029773Y0103285D01*
X0030023Y0103285D01*
X0029773Y0103285D02*
X0029522Y0103535D01*
X0029522Y0103785D01*
X0029773Y0104036D01*
X0030273Y0104036D01*
X0030523Y0103785D01*
X0030523Y0097036D02*
X0030523Y0095534D01*
X0031023Y0095534D02*
X0030022Y0095534D01*
X0031023Y0096535D02*
X0030523Y0097036D01*
X0031496Y0096785D02*
X0031496Y0096285D01*
X0031746Y0096035D01*
X0032497Y0096035D01*
X0032497Y0095534D02*
X0032497Y0097036D01*
X0031746Y0097036D01*
X0031496Y0096785D01*
X0031996Y0096035D02*
X0031496Y0095534D01*
X0031907Y0083114D02*
X0032158Y0083114D01*
X0032408Y0082864D01*
X0032408Y0082113D01*
X0031907Y0082113D01*
X0031657Y0082363D01*
X0031657Y0082864D01*
X0031907Y0083114D01*
X0032908Y0082614D02*
X0032408Y0082113D01*
X0032908Y0081641D02*
X0033158Y0081391D01*
X0033158Y0080890D01*
X0032908Y0080640D01*
X0031907Y0080640D01*
X0031657Y0080890D01*
X0031657Y0081391D01*
X0031907Y0081641D01*
X0032908Y0082614D02*
X0033158Y0083114D01*
X0043250Y0083408D02*
X0043250Y0082407D01*
X0044251Y0083408D01*
X0044501Y0083408D01*
X0044751Y0083157D01*
X0044751Y0082657D01*
X0044501Y0082407D01*
X0044501Y0081934D02*
X0044751Y0081684D01*
X0044751Y0081184D01*
X0044501Y0080934D01*
X0043500Y0080934D01*
X0043250Y0081184D01*
X0043250Y0081684D01*
X0043500Y0081934D01*
X0057957Y0077839D02*
X0057957Y0077339D01*
X0058207Y0077089D01*
X0058207Y0076616D02*
X0057957Y0076366D01*
X0057957Y0075866D01*
X0058207Y0075615D01*
X0059208Y0075615D01*
X0059458Y0075866D01*
X0059458Y0076366D01*
X0059208Y0076616D01*
X0059458Y0077089D02*
X0058708Y0077089D01*
X0058958Y0077589D01*
X0058958Y0077839D01*
X0058708Y0078090D01*
X0058207Y0078090D01*
X0057957Y0077839D01*
X0059458Y0078090D02*
X0059458Y0077089D01*
X0073863Y0078445D02*
X0075364Y0078445D01*
X0075364Y0079196D01*
X0075114Y0079446D01*
X0074613Y0079446D01*
X0074363Y0079196D01*
X0074363Y0078445D01*
X0074363Y0078946D02*
X0073863Y0079446D01*
X0074113Y0079919D02*
X0073863Y0080169D01*
X0073863Y0080669D01*
X0074113Y0080919D01*
X0074363Y0080919D01*
X0074613Y0080669D01*
X0074613Y0080419D01*
X0074613Y0080669D02*
X0074863Y0080919D01*
X0075114Y0080919D01*
X0075364Y0080669D01*
X0075364Y0080169D01*
X0075114Y0079919D01*
X0075114Y0081392D02*
X0075364Y0081642D01*
X0075364Y0082142D01*
X0075114Y0082393D01*
X0074113Y0081392D01*
X0073863Y0081642D01*
X0073863Y0082142D01*
X0074113Y0082393D01*
X0075114Y0082393D01*
X0075114Y0081392D02*
X0074113Y0081392D01*
X0078854Y0063029D02*
X0078604Y0062778D01*
X0079604Y0061777D01*
X0079354Y0061527D01*
X0078854Y0061527D01*
X0078604Y0061777D01*
X0078604Y0062778D01*
X0078854Y0063029D02*
X0079354Y0063029D01*
X0079604Y0062778D01*
X0079604Y0061777D01*
X0080077Y0061527D02*
X0081078Y0061527D01*
X0080577Y0061527D02*
X0080577Y0063029D01*
X0081078Y0062528D01*
X0081550Y0062778D02*
X0081800Y0063029D01*
X0082301Y0063029D01*
X0082551Y0062778D01*
X0082551Y0061777D01*
X0082301Y0061527D01*
X0081800Y0061527D01*
X0081550Y0061777D01*
X0081508Y0051536D02*
X0082009Y0051536D01*
X0082259Y0051285D01*
X0082259Y0050285D01*
X0082009Y0050034D01*
X0081508Y0050034D01*
X0081258Y0050285D01*
X0080785Y0050285D02*
X0080785Y0050034D01*
X0080785Y0050285D02*
X0079785Y0051285D01*
X0079785Y0051536D01*
X0080785Y0051536D01*
X0081258Y0051285D02*
X0081508Y0051536D01*
X0073394Y0017056D02*
X0073394Y0016056D01*
X0074144Y0016806D01*
X0072643Y0016806D01*
X0072893Y0015583D02*
X0072643Y0015333D01*
X0072643Y0014833D01*
X0072893Y0014582D01*
X0073894Y0014582D01*
X0074144Y0014833D01*
X0074144Y0015333D01*
X0073894Y0015583D01*
X0062351Y0016012D02*
X0062101Y0015762D01*
X0061851Y0015762D01*
X0061601Y0016012D01*
X0061601Y0016763D01*
X0062101Y0016763D02*
X0062351Y0016513D01*
X0062351Y0016012D01*
X0062101Y0015289D02*
X0062351Y0015039D01*
X0062351Y0014539D01*
X0062101Y0014289D01*
X0061100Y0014289D01*
X0060850Y0014539D01*
X0060850Y0015039D01*
X0061100Y0015289D01*
X0061100Y0015762D02*
X0060850Y0016012D01*
X0060850Y0016513D01*
X0061100Y0016763D01*
X0062101Y0016763D01*
D13*
X0082700Y0072684D02*
X0094100Y0072684D01*
X0094100Y0075684D01*
X0082700Y0075684D01*
X0082700Y0072684D01*
M02*
