G75*
%MOIN*%
%OFA0B0*%
%FSLAX25Y25*%
%IPPOS*%
%LPD*%
%AMOC8*
5,1,8,0,0,1.08239X$1,22.5*
%
%ADD10R,0.03150X0.03150*%
%ADD11R,0.03937X0.04331*%
%ADD12R,0.04331X0.03937*%
%ADD13R,0.07098X0.06299*%
%ADD14R,0.03937X0.01772*%
%ADD15R,0.07087X0.06299*%
%ADD16R,0.07087X0.12598*%
%ADD17R,0.04000X0.10600*%
%ADD18R,0.40000X0.35200*%
%ADD19R,0.03937X0.05512*%
%ADD20R,0.06299X0.07098*%
%ADD21R,0.06299X0.07087*%
%ADD22R,0.13504X0.06496*%
%ADD23R,0.05000X0.10000*%
%ADD24C,0.01181*%
%ADD25R,0.01200X0.03900*%
%ADD26R,0.05118X0.05906*%
%ADD27R,0.08000X0.15000*%
D10*
X0149847Y0065701D03*
X0155753Y0065701D03*
X0131800Y0090648D03*
X0131800Y0096554D03*
X0131800Y0105648D03*
X0131800Y0111554D03*
X0363847Y0028601D03*
X0369753Y0028601D03*
X0371800Y0095648D03*
X0371800Y0101554D03*
X0371800Y0110648D03*
X0371800Y0116554D03*
X0349753Y0253601D03*
X0343847Y0253601D03*
X0366800Y0325648D03*
X0366800Y0331554D03*
X0366800Y0340648D03*
X0366800Y0346554D03*
X0133380Y0288162D03*
X0127474Y0288162D03*
X0121800Y0325648D03*
X0121800Y0331554D03*
X0121800Y0340648D03*
X0121800Y0346554D03*
X0688769Y0357184D03*
X0694674Y0357184D03*
D11*
X0526800Y0375254D03*
X0526800Y0381947D03*
X0516800Y0381947D03*
X0516800Y0375254D03*
X0501800Y0375254D03*
X0501800Y0381947D03*
X0375146Y0308601D03*
X0368454Y0308601D03*
X0340146Y0313601D03*
X0333454Y0313601D03*
X0336800Y0367754D03*
X0336800Y0374447D03*
X0276800Y0376947D03*
X0276800Y0370254D03*
X0266800Y0370254D03*
X0266800Y0376947D03*
X0256800Y0376947D03*
X0256800Y0370254D03*
X0130146Y0308601D03*
X0123454Y0308601D03*
X0101800Y0367754D03*
X0101800Y0374447D03*
X0044800Y0217847D03*
X0039046Y0217801D03*
X0032354Y0217801D03*
X0044800Y0211154D03*
X0112824Y0154447D03*
X0112824Y0147754D03*
X0104746Y0083001D03*
X0098054Y0083001D03*
X0133454Y0078601D03*
X0140146Y0078601D03*
X0255265Y0128286D03*
X0255265Y0134979D03*
X0265265Y0134979D03*
X0265265Y0128286D03*
X0274865Y0128486D03*
X0274865Y0135179D03*
X0338454Y0083601D03*
X0345146Y0083601D03*
X0373454Y0078601D03*
X0380146Y0078601D03*
X0506800Y0140254D03*
X0506800Y0146947D03*
X0516800Y0146947D03*
X0516800Y0140254D03*
X0526800Y0140254D03*
X0526800Y0146947D03*
D12*
X0556800Y0077774D03*
X0556800Y0071081D03*
X0556800Y0026947D03*
X0556800Y0020254D03*
X0381800Y0095254D03*
X0381800Y0101947D03*
X0382000Y0110254D03*
X0382000Y0116947D03*
X0352546Y0127501D03*
X0345854Y0127501D03*
X0316918Y0077853D03*
X0316918Y0071160D03*
X0141800Y0090254D03*
X0141800Y0096947D03*
X0141800Y0105254D03*
X0141800Y0111947D03*
X0032900Y0023847D03*
X0032900Y0017154D03*
X0306800Y0300254D03*
X0306800Y0306947D03*
X0376800Y0325254D03*
X0376800Y0331947D03*
X0376800Y0340254D03*
X0376800Y0346947D03*
X0551800Y0306947D03*
X0551800Y0300254D03*
X0131800Y0325254D03*
X0131800Y0331947D03*
X0131800Y0340254D03*
X0131800Y0346947D03*
X0093400Y0313347D03*
X0093400Y0306654D03*
D13*
X0346800Y0274199D03*
X0346800Y0263002D03*
X0371800Y0049199D03*
X0371800Y0038002D03*
D14*
X0016077Y0018462D03*
X0016077Y0021021D03*
X0016077Y0023580D03*
X0016077Y0026139D03*
X0025723Y0026139D03*
X0025723Y0023580D03*
X0025723Y0021021D03*
X0025723Y0018462D03*
D15*
X0122824Y0148089D03*
X0132824Y0148089D03*
X0132824Y0159113D03*
X0122824Y0159113D03*
X0121800Y0368089D03*
X0111800Y0368089D03*
X0111800Y0379113D03*
X0121800Y0379113D03*
X0346800Y0379113D03*
X0356800Y0379113D03*
X0356800Y0368089D03*
X0346800Y0368089D03*
D16*
X0670776Y0373758D03*
X0692824Y0373758D03*
D17*
X0062900Y0230001D03*
X0052900Y0230001D03*
X0042900Y0230001D03*
D18*
X0052900Y0266201D03*
D19*
G36*
X0060905Y0215623D02*
X0058122Y0218406D01*
X0062019Y0222303D01*
X0064802Y0219520D01*
X0060905Y0215623D01*
G37*
G36*
X0057425Y0206854D02*
X0054642Y0209637D01*
X0058539Y0213534D01*
X0061322Y0210751D01*
X0057425Y0206854D01*
G37*
G36*
X0052136Y0212143D02*
X0049353Y0214926D01*
X0053250Y0218823D01*
X0056033Y0216040D01*
X0052136Y0212143D01*
G37*
D20*
X0122443Y0296288D03*
X0133640Y0296288D03*
X0131702Y0066801D03*
X0142898Y0066801D03*
D21*
X0345988Y0135901D03*
X0357012Y0135901D03*
X0366588Y0135901D03*
X0377612Y0135901D03*
D22*
X0220048Y0148660D03*
X0154024Y0148660D03*
X0154024Y0040353D03*
X0220048Y0040353D03*
X0239024Y0040353D03*
X0305048Y0040353D03*
X0399024Y0040353D03*
X0465048Y0040353D03*
X0484024Y0040353D03*
X0550048Y0040353D03*
X0581072Y0040392D03*
X0647095Y0040392D03*
X0540048Y0266298D03*
X0474024Y0266298D03*
X0455048Y0266298D03*
X0389024Y0266298D03*
X0295048Y0267479D03*
X0229024Y0267479D03*
X0210048Y0267479D03*
X0144024Y0267479D03*
X0076448Y0314053D03*
X0010424Y0314053D03*
D23*
X0025720Y0301730D03*
X0037531Y0301730D03*
X0049342Y0301730D03*
X0061153Y0301730D03*
X0159320Y0255156D03*
X0171131Y0255156D03*
X0182942Y0255156D03*
X0194753Y0255156D03*
X0244320Y0255156D03*
X0256131Y0255156D03*
X0267942Y0255156D03*
X0279753Y0255156D03*
X0404320Y0253975D03*
X0416131Y0253975D03*
X0427942Y0253975D03*
X0439753Y0253975D03*
X0489320Y0253975D03*
X0501131Y0253975D03*
X0512942Y0253975D03*
X0524753Y0253975D03*
X0204753Y0136337D03*
X0192942Y0136337D03*
X0181131Y0136337D03*
X0169320Y0136337D03*
X0169320Y0028030D03*
X0181131Y0028030D03*
X0192942Y0028030D03*
X0204753Y0028030D03*
X0254320Y0028030D03*
X0266131Y0028030D03*
X0277942Y0028030D03*
X0289753Y0028030D03*
X0414320Y0028030D03*
X0426131Y0028030D03*
X0437942Y0028030D03*
X0449753Y0028030D03*
X0499320Y0028030D03*
X0511131Y0028030D03*
X0522942Y0028030D03*
X0534753Y0028030D03*
X0596367Y0028069D03*
X0608178Y0028069D03*
X0619989Y0028069D03*
X0631800Y0028069D03*
D24*
X0023363Y0216396D02*
X0023363Y0219152D01*
X0023363Y0216396D02*
X0020607Y0216396D01*
X0020607Y0219152D01*
X0023363Y0219152D01*
X0023363Y0217576D02*
X0020607Y0217576D01*
X0020607Y0218756D02*
X0023363Y0218756D01*
X0016458Y0219152D02*
X0016458Y0216396D01*
X0013702Y0216396D01*
X0013702Y0219152D01*
X0016458Y0219152D01*
X0016458Y0217576D02*
X0013702Y0217576D01*
X0013702Y0218756D02*
X0016458Y0218756D01*
D25*
X0586662Y0099964D03*
X0589221Y0099964D03*
X0591780Y0099964D03*
X0594339Y0099964D03*
X0596898Y0099964D03*
X0599457Y0099964D03*
X0602017Y0099964D03*
X0604576Y0099964D03*
X0607135Y0099964D03*
X0609694Y0099964D03*
X0612253Y0099964D03*
X0614812Y0099964D03*
X0617371Y0099964D03*
X0619930Y0099964D03*
X0619930Y0076989D03*
X0617371Y0076989D03*
X0614812Y0076989D03*
X0612253Y0076989D03*
X0609694Y0076989D03*
X0607135Y0076989D03*
X0604576Y0076989D03*
X0602017Y0076989D03*
X0599457Y0076989D03*
X0596898Y0076989D03*
X0594339Y0076989D03*
X0591780Y0076989D03*
X0589221Y0076989D03*
X0586662Y0076989D03*
D26*
X0670194Y0076054D03*
X0677674Y0076054D03*
X0677926Y0066302D03*
X0670446Y0066302D03*
X0670756Y0056111D03*
X0678236Y0056111D03*
X0678230Y0046147D03*
X0670750Y0046147D03*
X0670206Y0087751D03*
X0677686Y0087751D03*
X0677611Y0098014D03*
X0670131Y0098014D03*
X0670131Y0108065D03*
X0677611Y0108065D03*
X0677898Y0117829D03*
X0670418Y0117829D03*
D27*
X0485600Y0127801D03*
X0445800Y0127801D03*
X0404627Y0127987D03*
X0404627Y0157987D03*
X0445800Y0157801D03*
X0485600Y0157801D03*
X0320600Y0171801D03*
X0281800Y0172001D03*
X0242824Y0171862D03*
X0242824Y0141862D03*
X0281800Y0142001D03*
X0320600Y0141801D03*
X0397540Y0357908D03*
X0437800Y0358201D03*
X0479000Y0358201D03*
X0479000Y0388201D03*
X0437800Y0388201D03*
X0397540Y0387908D03*
X0231400Y0387601D03*
X0192000Y0387801D03*
X0153052Y0387908D03*
X0153052Y0357908D03*
X0192000Y0357801D03*
X0231400Y0357601D03*
M02*
